<svg xmlns="http://www.w3.org/2000/svg" viewBox="0 0 64 64"><g id="Layer_15" data-name="Layer 15"><path d="M19.6,37c-1.2-.69-2.19-.14-2.19,1.25A4.78,4.78,0,0,0,19.59,42c1.2.69,2.18.13,2.18-1.24A4.77,4.77,0,0,0,19.6,37Z"/><path d="M12.67,25c-1.21-.69-2.19-.13-2.19,1.25A4.8,4.8,0,0,0,12.65,30c1.2.7,2.19.14,2.19-1.24A4.8,4.8,0,0,0,12.67,25Z"/><path d="M26.53,48.48c-1.2-.7-2.18-.14-2.19,1.24a4.82,4.82,0,0,0,2.17,3.77c1.21.69,2.19.13,2.19-1.25A4.77,4.77,0,0,0,26.53,48.48Z"/><path d="M29.57,11a4.75,4.75,0,0,0,4.34,0,1.33,1.33,0,0,0,0-2.51,4.8,4.8,0,0,0-4.35,0A1.33,1.33,0,0,0,29.57,11Z"/><path d="M43.47,19a4.77,4.77,0,0,0,4.35,0,1.33,1.33,0,0,0,0-2.51,4.8,4.8,0,0,0-4.35,0A1.33,1.33,0,0,0,43.47,19Z"/><path d="M16.2,18.73a4.75,4.75,0,0,0,4.34,0,1.33,1.33,0,0,0,0-2.51,4.8,4.8,0,0,0-4.35,0A1.33,1.33,0,0,0,16.2,18.73Z"/><path d="M30.09,24.24a1.33,1.33,0,0,0,0,2.52,4.78,4.78,0,0,0,4.34,0,1.33,1.33,0,0,0,0-2.51A4.78,4.78,0,0,0,30.09,24.24Z"/><path d="M56.76,20.33c0-1.28-.77-1.9-1.79-1.6.93-.76.82-1.82-.36-2.5L34.29,4.5a5.25,5.25,0,0,0-4.73,0L9.38,16.23c-1.25.73-1.28,1.88-.14,2.64-1.2-.56-2.14,0-2.15,1.46L7,43.67a5.2,5.2,0,0,0,2.36,4.1L29.71,59.5c1,.58,1.88.34,2.22-.5.34.84,1.2,1.09,2.22.5L54.47,47.77a5.22,5.22,0,0,0,2.36-4.1ZM10.4,16.82,30.59,5.09a3,3,0,0,1,2.68,0L53.59,16.83a.82.82,0,0,1,0,1.55L33.41,30.11a3,3,0,0,1-2.68,0L10.41,18.38A.83.83,0,0,1,10.4,16.82ZM31.06,57.55c0,.85-.6,1.2-1.35.77L9.4,46.59a3,3,0,0,1-1.35-2.33l.07-23.34c0-.85.61-1.2,1.35-.77L29.79,31.88a3,3,0,0,1,1.34,2.33Zm.87-24a5.28,5.28,0,0,0-2-2.7,5.41,5.41,0,0,0,3.6.24A5.5,5.5,0,0,0,31.93,33.52ZM54.46,46.59,34.14,58.32c-.74.43-1.34.08-1.34-.77L32.73,34.2a3,3,0,0,1,1.34-2.32L54.39,20.15c.74-.42,1.35-.08,1.35.77l.07,23.35A3,3,0,0,1,54.46,46.59Z"/><path d="M44.26,37a4.81,4.81,0,0,0-2.17,3.76c0,1.39,1,1.94,2.19,1.25a4.81,4.81,0,0,0,2.17-3.76C46.44,36.81,45.47,36.26,44.26,37Z"/><path d="M37.3,38a4.81,4.81,0,0,0,2.17-3.76c0-1.39-1-1.94-2.19-1.25a4.81,4.81,0,0,0-2.17,3.76C35.12,38.16,36.09,38.71,37.3,38Z"/><path d="M51.21,30a4.81,4.81,0,0,0,2.17-3.76c0-1.39-1-1.94-2.19-1.25A4.81,4.81,0,0,0,49,28.74C49,30.13,50,30.68,51.21,30Z"/><path d="M37.33,48.48a4.75,4.75,0,0,0-2.17,3.76c0,1.38,1,1.94,2.18,1.25a4.78,4.78,0,0,0,2.17-3.76C39.51,48.34,38.53,47.78,37.33,48.48Z"/><path d="M51.24,40.45a4.75,4.75,0,0,0-2.17,3.76c0,1.38,1,1.94,2.18,1.25a4.78,4.78,0,0,0,2.17-3.76C53.42,40.31,52.44,39.75,51.24,40.45Z"/></g></svg>