<svg width="19" height="23" viewBox="0 0 19 23" fill="none" xmlns="http://www.w3.org/2000/svg">
<path fill-rule="evenodd" clip-rule="evenodd" d="M14.0255 0.870717C14.1481 2.16823 13.6078 3.4608 12.8215 4.38381C12.0353 5.30428 10.7568 6.01407 9.52133 5.89885C9.37037 4.62631 10.0177 3.3125 10.7439 2.49782C11.5556 1.57519 12.9123 0.899609 14.0255 0.870717ZM17.9193 8.47774C17.7056 8.60461 15.4949 9.91697 15.4785 12.64C15.4584 15.9792 18.3382 17.1368 18.3774 17.1525L18.3775 17.1526C18.3764 17.1559 18.3745 17.1617 18.3718 17.1699C18.3109 17.3574 17.8429 18.7979 16.8009 20.2739C15.8586 21.6061 14.8833 22.9327 13.3766 22.9404C12.6543 22.9432 12.1742 22.7265 11.6748 22.5011C11.1519 22.2651 10.6079 22.0196 9.74261 22.0065C8.83648 21.9928 8.26045 22.2282 7.70524 22.4552C7.22398 22.652 6.75836 22.8423 6.10696 22.8584C4.65074 22.8923 3.56873 21.3643 2.6594 20.0092C0.801063 17.2348 -0.573437 12.2016 1.42578 8.85295C2.41892 7.18616 4.16467 6.15063 6.0421 6.15108C6.85165 6.14748 7.63014 6.47008 8.3118 6.75255C8.83242 6.96829 9.29656 7.16062 9.67491 7.16634C10.0144 7.17148 10.472 6.9989 11.0054 6.79775C11.8449 6.48119 12.872 6.09385 13.9218 6.21691C14.6426 6.2583 16.6605 6.54796 17.9322 8.47003C17.9294 8.47173 17.9251 8.4743 17.9193 8.47774Z" fill="white"/>
</svg>
