<?xml version="1.0" encoding="UTF-8" standalone="no"?> <svg id="stroke" xmlns="http://www.w3.org/2000/svg" viewBox="0 0 340 340"><path d="M299.949,113.884a3.769,3.769,0,0,1-2.52-3.573V87.541a11.491,11.491,0,0,0,8.819-10.319,11.314,11.314,0,0,0-3.061-8.557,11.456,11.456,0,0,0-8.329-3.609H277.446a11.582,11.582,0,0,0-11.664,10.66,11.322,11.322,0,0,0,3.061,8.558,11.463,11.463,0,0,0,5.759,3.314v22.723a3.807,3.807,0,0,1-2.564,3.589,42.675,42.675,0,0,0-7.879,76.951l-.231.567a13.319,13.319,0,0,0,1.455,12.783,48.178,48.178,0,0,0,5.058,6.028c-11.967,18.082-22.974,27.471-28.343,31.392-8.866-25.985-19.966-53.884-25.985-68.651-.012-.03-.031-.054-.044-.083,1.247-16.93,3.339-32.416,6.639-44.554a3.426,3.426,0,0,0-4.114-4.229c-.305.074-29.319,7.04-47.546,5.417v-6.838c.946.289,1.914.574,2.929.852a13.432,13.432,0,0,0,3.543.476,13.179,13.179,0,0,0,7.047-2.026l.179-.114a17.207,17.207,0,0,0,7.807-14.554V92.223c5.12-.814,8.978-6.8,8.978-14.294s-3.858-13.48-8.978-14.293V50.963c.232-2.763,2.2-32.369-19.078-38.272a3.428,3.428,0,0,0-4.173,2.238l-.934,2.858c-7.141-4.423-23.191-10.988-46.048-.828-.181.08-18.156,8.036-28.594,6.513a3.427,3.427,0,0,0-3.664,4.7c.209.5,4.568,10.818,14.49,16.773a49.429,49.429,0,0,0-8.841,10.132,3.426,3.426,0,0,0,1.683,5.062l11.323,4.233a96.6,96.6,0,0,0-7,19.574,3.429,3.429,0,0,0,1.663,3.853,50.5,50.5,0,0,0,13.318,4.59,3.474,3.474,0,0,0,.676.067,3.427,3.427,0,0,0,.668-6.788,47.136,47.136,0,0,1-8.954-2.753c3.62-12.938,7.347-18.282,7.376-18.323a3.426,3.426,0,0,0-1.571-5.226L104.024,55.3a45.5,45.5,0,0,1,8.866-8.208,3.427,3.427,0,0,0-.736-6.1c-6.2-2.183-10.466-6.93-12.981-10.588,11.689-.866,25.266-6.885,25.938-7.186,26.621-11.831,42.065,2.025,42.7,2.609a3.427,3.427,0,0,0,5.608-1.429l1.276-3.906c8.436,4.4,10.57,15.639,11.025,23.046-5.788-3.458-15.749-6.386-30.3-.64a24.264,24.264,0,0,0-15.251,23.889l.467,9.087a11.656,11.656,0,0,0-14,13.451,17.727,17.727,0,0,0,2.439,6.1,11.8,11.8,0,0,0,6.938,5.8v25.651c-8.767.131-33.253-.15-49.553-6.67a3.427,3.427,0,0,0-4.628,3.876c.052.247,1.951,9.692,4.114,28.182-16.783,13.379-55.942,47.889-73.366,90.884a16.528,16.528,0,0,0,6.844,20.476,42.916,42.916,0,0,0,5.128,2.607,59.4,59.4,0,0,0-4.407,7.407,3.426,3.426,0,0,0,2.744,4.879c20.854,2.144,40.262,16.555,47.756,22.761l-2.028,1.369A15.782,15.782,0,0,0,61.82,313.5l-.283,2a11.331,11.331,0,0,0,11.218,12.921H215.634a3.428,3.428,0,0,0,3.413-3.737c-.091-1-6.559-73.709-3.9-135.749,6.41,16.136,14.845,38.112,21.661,58.438-1.148,14.158,1.291,27.927,4.224,38.59a74.88,74.88,0,0,1-15.708-7.011,3.427,3.427,0,0,0-3.551,5.862,85.477,85.477,0,0,0,21.662,9,115.493,115.493,0,0,0,4.9,12.388,3.428,3.428,0,0,0,2.392,1.862,3.38,3.38,0,0,0,.692.071,3.429,3.429,0,0,0,2.243-.836c35.835-31.022,45.214-82.41,46.947-94.293a36.532,36.532,0,0,0,17.408-11.121,14.135,14.135,0,0,0,1.883-16.1l-1.854-3.429a42.648,42.648,0,0,0-18.1-68.469ZM164.2,145.721a45.387,45.387,0,0,1-21.341-16.473V101.87c.336-.035.668-.065,1.017-.119l.368,1.34a18.883,18.883,0,0,0,6.56,9.885,54.79,54.79,0,0,0,13.4,7.32Zm27.164-60.249c-1.171,0-3.321-2.864-3.321-7.543s2.15-7.542,3.321-7.542,3.319,2.863,3.319,7.542S192.529,85.472,191.359,85.472Zm-56.386,6.48a11.037,11.037,0,0,1-1.613-3.886,4.691,4.691,0,0,1,1.766-4.591,4.565,4.565,0,0,1,4.745-.66,6.351,6.351,0,0,1,1.872,1.229h0a3.426,3.426,0,0,0,6.047-2.378l-.783-15.231a17.417,17.417,0,0,1,10.923-17.162c16.631-6.564,25.374.4,27.77,2.835V65.9a15.112,15.112,0,0,0-4.224,8.6h-2.909c-1.368-6.286-6.391-10.969-12.377-10.969-7.035,0-12.758,6.457-12.758,14.4s5.723,14.4,12.758,14.4c5.986,0,11.009-4.683,12.377-10.969h2.909a15.119,15.119,0,0,0,4.224,8.6v17.361a10.388,10.388,0,0,1-4.681,8.8l-.109.069a6.427,6.427,0,0,1-5.125.735c-11.12-3.04-17.441-6.77-20.785-9.365a11.985,11.985,0,0,1-4.151-6.283l-1.237-4.507a3.427,3.427,0,0,0-4.3-2.371c-7.741,2.354-9.879-1.551-10.065-1.933A3.317,3.317,0,0,0,134.973,91.952Zm37.12-14.023c0,4.159-2.648,7.543-5.9,7.543s-5.905-3.384-5.905-7.543,2.649-7.542,5.905-7.542S172.093,73.77,172.093,77.929Zm-33.527,57.134a53.223,53.223,0,0,0,26.812,18.317,122.482,122.482,0,0,1,8.925,19.694c-5.333,12.294-19.294,41.938-40.638,69.482-.249-23.763-.893-48.621-2.29-68.549C130.59,165.3,130.575,142.918,138.566,135.063Zm27.472,169.989h21.894v16.51H166.038ZM139.713,271.7a3.424,3.424,0,0,0,4.829-.392c12.856-15.123,29.452-36.682,39.929-58.008a289.568,289.568,0,0,1,3.461,45.537V298.2H166.038v-2.742a10.9,10.9,0,0,0-18.666-7.655,11.776,11.776,0,0,0-8.123-3.253h-5.491c.05-9.5.061-20.093,0-31.147,21.346-25.7,36.254-54.536,43.752-70.733,1.679,5.514,3.321,11.8,4.791,18.818-.05.1-.109.184-.15.285-9.424,23.251-28.49,48.235-42.826,65.1A3.427,3.427,0,0,0,139.713,271.7Zm-6,19.7h5.534a4.979,4.979,0,0,1,4.974,4.973v25.187h-10.88C133.438,316.28,133.612,305.394,133.715,291.4ZM92.2,265.637a143.432,143.432,0,0,0-23.415-23.744L91.2,222.479C91.726,235.573,92.091,249.961,92.2,265.637ZM22.94,257.753a9.708,9.708,0,0,1-4.021-12.026c15.749-38.86,50.174-70.762,67.914-85.366,1.458,13.857,2.935,31.67,3.977,53.385L61.744,238.93c-15.377,3.916-26.187,13.519-32.929,21.648A36.162,36.162,0,0,1,22.94,257.753Zm46.434,62.268a4.418,4.418,0,0,1-1.052-3.564l.283-2a8.922,8.922,0,0,1,3.834-6.13l5.729-3.867a3.427,3.427,0,0,0,.44-5.328c-.99-.937-23.214-21.744-49.907-26.691,4.551-7.193,15.688-21.691,33.93-26.677,4.559,3.545,20.361,16.466,29.447,31.92.048.081.11.147.164.223q-.027,20.475-.681,43.65H72.755A4.418,4.418,0,0,1,69.374,320.021Zm20.2-191.476c14.139,4.267,31.2,5.131,41.312,5.219-8.517,13.189-6.634,37.577-6.341,40.791,3.465,49.434,2.258,129.691,1.945,147.007H98.42C101.6,212.4,92.7,147.5,89.573,128.545Zm61.5,167.83v-.918a4.054,4.054,0,1,1,8.108,0v26.105h-8.108Zm43.709,25.187V258.839c0-67.345-20.024-103.261-23.737-109.342V136.4c14.545,1.142,34.23-2.429,43.688-4.415C201.71,188.873,210.043,299.4,211.9,321.562Zm55.478-165.568a36.028,36.028,0,0,1,24.02-35.62,10.663,10.663,0,0,0,7.172-10.063V84.456a3.426,3.426,0,0,0-3.427-3.426h-.856a4.563,4.563,0,0,1-4.551-4.87,4.776,4.776,0,0,1,4.825-4.251h17.412a4.56,4.56,0,0,1,4.55,4.871,4.773,4.773,0,0,1-4.823,4.25H294a3.427,3.427,0,0,0-3.427,3.426v25.855a10.624,10.624,0,0,0,7.134,10.05,35.8,35.8,0,1,1-47.447,35.633Zm62.645,41.322c-3.187,3.565-8.553,8.11-16.017,9.517a3.428,3.428,0,0,0-2.77,2.983c-.065.573-6.71,55.918-41.459,89.129-3.475-8.611-10.527-29.031-9.109-49.991,4.744-3.043,18.883-13.434,34.217-37.424a3.436,3.436,0,0,0-.722-4.5,37.944,37.944,0,0,1-6.073-6.788,6.5,6.5,0,0,1-.7-6.237l.05-.124a42.43,42.43,0,0,0,12.628,2.867q1.56.108,3.1.108a42.159,42.159,0,0,0,26.865-9.57l.95,1.757A7.263,7.263,0,0,1,312.908,197.316Z"/><path d="M286.037,181.519A27.317,27.317,0,0,0,313.331,154.2a27.4,27.4,0,0,0-3.051-12.54,3.429,3.429,0,0,0-2.8-1.843,31.942,31.942,0,0,0-17.288,3.915,26.682,26.682,0,0,1-25.041.221l-.209-.113a3.427,3.427,0,0,0-4.916,1.945,27.311,27.311,0,0,0,24.432,35.687Q285.251,181.519,286.037,181.519ZM265.76,157.137a20.783,20.783,0,0,1-.057-5.416,33.765,33.765,0,0,0,27.683-1.922,25.946,25.946,0,0,1,11.631-3.194,20.465,20.465,0,0,1-20.177,28.027A20.434,20.434,0,0,1,265.76,157.137Z"/><path d="M281.478,136.916a3.658,3.658,0,1,0-3.658-3.658A3.658,3.658,0,0,0,281.478,136.916Z"/><path d="M296.15,162.672a3.658,3.658,0,1,0-3.658-3.658A3.658,3.658,0,0,0,296.15,162.672Z"/><path d="M280.9,160.016a3.658,3.658,0,1,0,3.658,3.658A3.658,3.658,0,0,0,280.9,160.016Z"/></svg>