<svg width="11" height="16" viewBox="0 0 11 16" fill="none" xmlns="http://www.w3.org/2000/svg">
<path id="Location Icon" d="M5.49955 0.5C2.51498 0.5 0.0998351 2.9799 0.00165848 6.12505C-0.0768828 9.04842 2.65258 12.8991 4.28231 14.9152C4.59648 15.2983 5.0283 15.5 5.49955 15.5C5.9708 15.5 6.40262 15.2781 6.71678 14.9152C8.34652 12.879 11.0956 9.04842 10.9974 6.12505C10.8993 2.9799 8.48412 0.5 5.49955 0.5ZM5.49955 4.12901C6.57949 4.12901 7.46308 5.03627 7.46308 6.14513C7.46308 7.254 6.57949 8.16125 5.49955 8.16125C4.41961 8.16125 3.53602 7.254 3.53602 6.14513C3.53602 5.03627 4.41961 4.12901 5.49955 4.12901Z" fill="white"/>
</svg>
