<?xml version="1.0" encoding="UTF-8" standalone="no"?> <svg width="512" height="512" viewBox="0 0 512 512" fill="none" xmlns="http://www.w3.org/2000/svg">
<path d="M414.4 113.6C379.7 78.9 335.6 57 287.9 50.3C288 49.6 288 48.8 288 48C288 30.4 273.6 16 256 16C238.4 16 224 30.4 224 48C224 48.8 224 49.5 224.1 50.3C176.4 57.1 132.3 79 97.6 113.7C55.3 155.9 32 212.2 32 272C32 331.8 55.3 388.1 97.6 430.4C139.9 472.7 196.2 496 256 496C315.8 496 372.1 472.7 414.4 430.4C456.7 388.1 480 331.8 480 272C480 212.2 456.7 155.9 414.4 113.6ZM240 48C240 39.2 247.2 32 256 32C264.8 32 272 39.2 272 48C272 48.2 272 48.4 272 48.6C266.7 48.2 261.4 48 256 48C250.6 48 245.3 48.2 240 48.6C240 48.4 240 48.2 240 48ZM256 480C141.3 480 48 386.7 48 272C48 157.3 141.3 64 256 64C370.7 64 464 157.3 464 272C464 386.7 370.7 480 256 480Z" fill="black"/>
<path d="M256 80C150.1 80 64 166.1 64 272C64 377.9 150.1 464 256 464C361.9 464 448 377.9 448 272C448 166.1 361.9 80 256 80ZM256 448C159 448 80 369 80 272C80 175 159 96 256 96C353 96 432 175 432 272C432 369 353 448 256 448Z" fill="black"/>
<path d="M240 176C244.4 176 248 172.4 248 168V146.4L265.3 172.4C266.8 174.7 269.3 176 272 176C272.8 176 273.6 175.9 274.3 175.7C277.7 174.7 280 171.6 280 168V120C280 115.6 276.4 112 272 112C267.6 112 264 115.6 264 120V141.6L246.7 115.6C244.7 112.7 241.1 111.4 237.7 112.4C234.3 113.4 232 116.5 232 120.1V168.1C232 172.4 235.6 176 240 176Z" fill="black"/>
<path d="M151.9 297.3L159.9 249.3C160.6 244.9 157.7 240.8 153.3 240.1C148.9 239.4 144.8 242.3 144.1 246.7L141.4 262.9L135.6 245.5C134.5 242.2 131.5 240 128 240C124.5 240 121.5 242.2 120.4 245.5L114.6 262.9L111.9 246.7C111.2 242.3 107.1 239.4 102.7 240.1C98.2999 240.8 95.3999 244.9 96.0999 249.3L104.1 297.3C104.7 300.9 107.7 303.7 111.4 304C115.1 304.3 118.5 302 119.6 298.6L128 273.4L136.4 298.6C137.5 301.9 140.6 304.1 144 304.1C144.2 304.1 144.4 304.1 144.6 304.1C148.3 303.7 151.3 300.9 151.9 297.3Z" fill="black"/>
<path d="M400 280C404.4 280 408 276.4 408 272C408 267.6 404.4 264 400 264H384V256H400C404.4 256 408 252.4 408 248C408 243.6 404.4 240 400 240H376C371.6 240 368 243.6 368 248V296C368 300.4 371.6 304 376 304H400C404.4 304 408 300.4 408 296C408 291.6 404.4 288 400 288H384V280H400Z" fill="black"/>
<path d="M264 384C264 388.4 267.6 392 272 392C276.4 392 280 388.4 280 384C280 375.2 272.8 368 264 368H248C239.2 368 232 375.2 232 384V392C232 400.8 239.2 408 248 408H264V416H248C248 411.6 244.4 408 240 408C235.6 408 232 411.6 232 416C232 424.8 239.2 432 248 432H264C272.8 432 280 424.8 280 416V408C280 399.2 272.8 392 264 392H248V384H264Z" fill="black"/>
<path d="M365.7 162.3C363.2 159.8 359.4 159.2 356.3 160.9L255 214.5L163.6 168.8C160.5 167.3 156.8 167.9 154.4 170.3C152 172.7 151.4 176.5 152.9 179.5L198.6 270.9L145 372.2C143.4 375.3 143.9 379.1 146.4 381.6C147.9 383.1 150 383.9 152.1 383.9C153.4 383.9 154.7 383.6 155.8 383L257 329.5L348.4 375.2C349.5 375.8 350.8 376 352 376C354.1 376 356.1 375.2 357.7 373.7C360.1 371.3 360.7 367.5 359.2 364.5L313.5 273L367.1 171.7C368.7 168.6 368.1 164.8 365.7 162.3ZM177.9 193.9L237.6 223.8L220.2 233C220 233.1 219.9 233.2 219.8 233.3C219.7 233.4 219.6 233.4 219.4 233.5C219.3 233.6 219.1 233.7 219 233.8C218.9 233.9 218.8 234 218.7 234.1C218.6 234.2 218.5 234.3 218.4 234.4C218.3 234.5 218.2 234.6 218.1 234.7C218 234.8 217.9 234.9 217.8 235.1C217.7 235.2 217.6 235.3 217.5 235.5C217.4 235.6 217.3 235.7 217.3 235.9C217.2 236 217.1 236.2 217 236.3L207.8 253.7L177.9 193.9ZM226 253.3L274.7 302L171.3 356.8L226 253.3ZM334.1 350.1L274.4 320.2L291.8 311C292 310.9 292.1 310.8 292.2 310.7C292.3 310.6 292.4 310.6 292.6 310.5C292.7 310.4 292.9 310.3 293 310.2C293.1 310.1 293.2 310 293.3 309.9C293.4 309.8 293.5 309.7 293.6 309.6C293.7 309.5 293.8 309.4 293.9 309.3C294 309.2 294.1 309.1 294.2 308.9C294.3 308.8 294.4 308.7 294.5 308.5C294.6 308.4 294.7 308.3 294.7 308.1C294.8 308 294.9 307.8 295 307.7L304.2 290.3L334.1 350.1ZM286 290.7L237.3 242L340.7 187.2L286 290.7Z" fill="black"/>
</svg>
