<?xml version="1.0" encoding="iso-8859-1"?>
<!-- Uploaded to: SVG Repo, www.svgrepo.com, Generator: SVG Repo Mixer Tools -->
<svg fill="#000000" height="800px" width="800px" version="1.1" id="Layer_1" xmlns="http://www.w3.org/2000/svg" xmlns:xlink="http://www.w3.org/1999/xlink" 
	 viewBox="0 0 511.771 511.771" xml:space="preserve">
<g transform="translate(1 1)">
	<g>
		<g>
			<path d="M506.771,100.257c0-4.289-2.415-7.773-5.734-8.942c-1.412-0.804-2.783-1.318-3.998-1.435L253.514-0.314
				c-1.829-0.914-4.571-0.914-6.4,0L11.09,81.386c-1.733,0.019-3.385,0.451-4.433,1.499c-0.566,0.566-1.126,1.228-1.638,1.943
				C3.765,86.354,3,88.275,3,90.2v310.857c0,3.657,1.829,7.314,5.486,8.229L246.2,509.857c0.914,0.914,2.743,0.914,3.657,0.914
				c0.627,0,1.253-0.007,1.88-0.302c0.849-0.261,1.616-0.665,2.198-1.107l245.522-90.934c3.657-0.914,6.4-4.571,6.4-8.229V104.338
				C506.437,103.194,506.771,101.838,506.771,100.257z M249.857,17.971l219.429,80.457l-219.429,73.143L38.657,90.2L249.857,17.971z
				 M21.286,103.914l219.429,84.114v299.886L21.286,394.657V103.914z M259,487.914V188.943l228.571-76.19v290.133L259,487.914z"/>
			<path d="M450.086,154.2c-10.057,0-17.371,10.057-17.371,21.943c0,11.886,8.229,21.943,17.371,21.943
				c10.057,0,17.371-10.057,17.371-21.943C467.457,164.257,459.229,154.2,450.086,154.2z"/>
			<path d="M378.771,263.914c-10.057,0-17.371,10.057-17.371,21.943c0,11.886,8.229,21.943,17.371,21.943
				c10.057,0,17.371-10.057,17.371-21.943C396.143,273.971,388.829,263.914,378.771,263.914z"/>
			<path d="M312.943,384.6c-10.057,0-17.371,10.057-17.371,21.943c0,11.886,8.229,21.943,17.371,21.943
				c10.057,0,17.371-10.057,17.371-21.943C330.314,394.657,322.086,384.6,312.943,384.6z"/>
			<path d="M189.514,199.914c-10.057,0-17.371,10.057-17.371,21.943c0,11.886,8.229,21.943,17.371,21.943
				c10.057,0,17.371-10.057,17.371-21.943C206.886,209.971,199.571,200.829,189.514,199.914z"/>
			<path d="M57.857,145.971c-9.143,0-17.371,10.057-17.371,21.943c0,11.886,8.229,21.943,17.371,21.943
				c10.057,0,17.371-10.057,17.371-21.943C75.229,155.114,67.914,145.971,57.857,145.971z"/>
			<path d="M186.771,391.914c-10.057,0-17.371,10.057-17.371,21.943s8.229,21.943,17.371,21.943
				c10.057,0,17.371-10.057,17.371-21.943C204.143,401.971,196.829,391.914,186.771,391.914z"/>
			<path d="M57.857,338.886c-10.057,0-17.371,10.057-17.371,21.943c0,11.886,8.229,21.943,17.371,21.943
				c9.143,0,16.457-10.057,16.457-21.943C74.314,348.943,67,338.886,57.857,338.886z"/>
			<path d="M271.8,93.857c0-10.057-10.057-17.371-21.943-17.371c-11.886,0-21.943,7.314-21.943,17.371
				c0,10.057,10.057,17.371,21.943,17.371C261.743,111.229,271.8,103,271.8,93.857z"/>
		</g>
	</g>
</g>
</svg>