<?xml version="1.0" encoding="iso-8859-1"?>
<!-- Uploaded to: SVG Repo, www.svgrepo.com, Generator: SVG Repo Mixer Tools -->
<svg height="800px" width="800px" version="1.1" id="Layer_1" xmlns="http://www.w3.org/2000/svg" xmlns:xlink="http://www.w3.org/1999/xlink" 
	 viewBox="0 0 512 512" xml:space="preserve">
<path style="fill:#FF6465;" d="M304.313,17.805L146.69,175.429c-9.638,9.638-9.637,25.264,0,34.902l157.623,157.623
	c9.638,9.638,25.264,9.638,34.902,0L496.84,210.33c9.638-9.638,9.638-25.263,0-34.902L339.215,17.805
	C329.578,8.168,313.951,8.168,304.313,17.805z"/>
<path style="opacity:0.1;enable-background:new    ;" d="M346.622,325.646L188.998,168.023c-9.638-9.638-9.638-25.264,0-34.902
	l-42.308,42.308c-9.638,9.638-9.637,25.264,0,34.902l157.623,157.623c9.638,9.638,25.264,9.638,34.902,0l42.308-42.308
	C371.886,335.284,356.26,335.285,346.622,325.646z"/>
<path style="fill:#515262;" d="M255.526,229.151H32.612c-13.63,0-24.68,11.05-24.68,24.68v222.914c0,13.631,11.05,24.68,24.68,24.68
	h222.914c13.63,0,24.68-11.049,24.68-24.68V253.831C280.205,240.201,269.156,229.151,255.526,229.151z"/>
<path style="opacity:0.1;enable-background:new    ;" d="M60.818,476.744V253.831c0-13.63,11.05-24.68,24.68-24.68H32.612
	c-13.63,0-24.68,11.05-24.68,24.68v222.914c0,13.631,11.05,24.68,24.68,24.68h52.886C71.867,501.424,60.818,490.374,60.818,476.744z
	"/>
<g>
	<circle style="fill:#B4BBCC;" cx="211.415" cy="192.884" r="21.73"/>
	<circle style="fill:#B4BBCC;" cx="321.766" cy="82.533" r="21.73"/>
	<circle style="fill:#B4BBCC;" cx="321.766" cy="303.235" r="21.73"/>
	<circle style="fill:#B4BBCC;" cx="432.117" cy="192.884" r="21.73"/>
	<circle style="fill:#B4BBCC;" cx="144.071" cy="365.291" r="21.73"/>
	<circle style="fill:#B4BBCC;" cx="66.043" cy="287.253" r="21.73"/>
	<circle style="fill:#B4BBCC;" cx="222.098" cy="287.253" r="21.73"/>
	<circle style="fill:#B4BBCC;" cx="66.043" cy="443.319" r="21.73"/>
	<circle style="fill:#B4BBCC;" cx="222.098" cy="443.319" r="21.73"/>
</g>
<path d="M211.414,222.542c-7.923,0-15.372-3.085-20.974-8.688c-5.603-5.602-8.688-13.051-8.688-20.974
	c0-7.923,3.085-15.373,8.689-20.975h-0.001c0.001,0,0.001,0,0.001,0c5.602-5.603,13.05-8.688,20.973-8.688
	c7.923,0,15.372,3.085,20.974,8.688c11.566,11.566,11.566,30.384,0.001,41.95C226.786,219.457,219.338,222.542,211.414,222.542z
	 M211.414,179.083c-3.685,0-7.15,1.434-9.755,4.04h-0.001c-2.606,2.606-4.04,6.071-4.04,9.756s1.434,7.15,4.04,9.756
	c2.606,2.606,6.07,4.04,9.756,4.04s7.151-1.435,9.757-4.04c5.378-5.38,5.378-14.133-0.001-19.513
	C218.565,180.519,215.099,179.083,211.414,179.083z"/>
<path d="M321.764,112.179c-7.596,0-15.192-2.891-20.974-8.674c-11.566-11.566-11.566-30.384-0.001-41.95h0.001
	c11.565-11.566,30.385-11.566,41.949,0c5.604,5.602,8.689,13.051,8.689,20.975c0,7.923-3.085,15.373-8.689,20.974
	C336.956,109.288,329.361,112.179,321.764,112.179z M312.008,72.774c-5.38,5.38-5.38,14.133,0,19.513
	c5.378,5.38,14.132,5.378,19.513,0c2.606-2.606,4.04-6.071,4.04-9.756s-1.434-7.15-4.04-9.756
	C326.14,67.395,317.389,67.395,312.008,72.774L312.008,72.774z"/>
<path d="M321.764,332.879c-7.596,0-15.192-2.891-20.974-8.674c-11.566-11.566-11.566-30.385-0.001-41.95h0.001
	c11.565-11.566,30.385-11.566,41.949,0c5.604,5.602,8.689,13.051,8.689,20.974c0,7.923-3.085,15.373-8.688,20.975
	C336.956,329.988,329.361,332.879,321.764,332.879z M312.008,293.474c-5.38,5.38-5.38,14.133,0,19.513
	c5.381,5.377,14.132,5.378,19.513,0c2.605-2.606,4.04-6.071,4.04-9.756c0-3.685-1.434-7.15-4.04-9.756
	C326.14,288.095,317.389,288.095,312.008,293.474L312.008,293.474z"/>
<path d="M432.114,222.542c-7.923,0-15.372-3.085-20.974-8.688c-5.603-5.602-8.688-13.051-8.688-20.974
	c0-7.923,3.085-15.373,8.689-20.975h-0.001c0.001,0,0.001,0,0.001,0c5.602-5.603,13.05-8.688,20.973-8.688
	c7.923,0,15.372,3.085,20.974,8.688c11.566,11.566,11.566,30.384,0.001,41.95C447.486,219.457,440.038,222.542,432.114,222.542z
	 M432.114,179.083c-3.685,0-7.15,1.434-9.755,4.04h-0.001c-2.606,2.606-4.04,6.071-4.04,9.756s1.434,7.15,4.04,9.756
	c2.606,2.606,6.07,4.04,9.756,4.04c3.686,0,7.151-1.435,9.757-4.04c5.378-5.38,5.378-14.133-0.001-19.513
	C439.265,180.519,435.799,179.083,432.114,179.083z"/>
<path d="M144.069,394.949c-16.356,0-29.662-13.307-29.662-29.662s13.306-29.662,29.662-29.662s29.664,13.307,29.664,29.662
	C173.732,381.643,160.425,394.949,144.069,394.949z M144.069,351.49c-7.607,0-13.797,6.19-13.797,13.797
	c0,7.608,6.19,13.797,13.797,13.797c7.608,0,13.798-6.19,13.798-13.797C157.867,357.68,151.677,351.49,144.069,351.49z"/>
<path d="M66.04,316.92c-16.356,0-29.664-13.307-29.664-29.662c0-16.356,13.307-29.662,29.664-29.662s29.662,13.307,29.662,29.662
	C95.702,303.614,82.396,316.92,66.04,316.92z M66.04,273.461c-7.608,0-13.798,6.19-13.798,13.797c0,7.607,6.19,13.797,13.798,13.797
	c7.607,0,13.797-6.19,13.797-13.797C79.836,279.65,73.647,273.461,66.04,273.461z"/>
<path d="M222.097,316.92c-16.356,0-29.662-13.307-29.662-29.662c0-16.356,13.306-29.662,29.662-29.662s29.664,13.307,29.664,29.662
	C251.761,303.614,238.454,316.92,222.097,316.92z M222.097,273.461c-7.607,0-13.797,6.19-13.797,13.797
	c0,7.607,6.19,13.797,13.797,13.797c7.608,0,13.798-6.19,13.798-13.797S229.706,273.461,222.097,273.461z"/>
<path d="M66.04,472.979c-16.356,0-29.664-13.307-29.664-29.662c0-16.355,13.307-29.662,29.664-29.662s29.662,13.307,29.662,29.662
	C95.703,459.672,82.396,472.979,66.04,472.979z M66.04,429.519c-7.608,0-13.798,6.19-13.798,13.797
	c0,7.607,6.19,13.797,13.798,13.797c7.607,0,13.797-6.19,13.797-13.797C79.837,435.708,73.647,429.519,66.04,429.519z"/>
<path d="M222.097,472.979c-16.356,0-29.662-13.307-29.662-29.662c0-16.355,13.306-29.662,29.662-29.662s29.664,13.307,29.664,29.662
	C251.761,459.672,238.454,472.979,222.097,472.979z M222.097,429.519c-7.607,0-13.797,6.19-13.797,13.797
	c0,7.607,6.19,13.797,13.797,13.797c7.608,0,13.798-6.19,13.798-13.797C235.895,435.708,229.706,429.519,222.097,429.519z"/>
<path d="M502.449,169.82L344.824,12.196c-6.159-6.16-14.35-9.552-23.06-9.552c-8.711,0-16.901,3.392-23.06,9.551L141.081,169.82
	c-6.16,6.159-9.552,14.349-9.552,23.06c0.001,8.711,3.393,16.901,9.552,23.06l5.277,5.277H32.612C14.63,221.217,0,235.847,0,253.83
	v222.914c0,17.982,14.63,32.612,32.612,32.612h222.914c17.982,0,32.611-14.63,32.611-32.612V362.997l10.567,10.567
	c6.158,6.159,14.348,9.551,23.059,9.552c0.001,0,0.002,0,0.003,0c8.709,0,16.899-3.392,23.059-9.552L502.448,215.94
	c6.16-6.159,9.552-14.349,9.552-23.06S508.608,175.98,502.449,169.82z M272.272,476.743c0,9.234-7.513,16.747-16.746,16.747H32.612
	c-9.234,0-16.747-7.513-16.747-16.747V253.83c0-9.234,7.513-16.747,16.747-16.747h222.914c9.233,0,16.746,7.513,16.746,16.747
	L272.272,476.743L272.272,476.743z M491.23,204.722L333.606,362.345c-3.164,3.164-7.368,4.905-11.84,4.905h-0.001
	c-4.474,0-8.68-1.742-11.841-4.905l-21.786-21.785V253.83c0-16.859-12.859-30.771-29.283-32.444
	c-1.095-0.111-2.205-0.168-3.33-0.168h-86.731l-16.496-16.496c-3.163-3.164-4.906-7.369-4.906-11.842s1.741-8.679,4.906-11.841
	L309.924,23.415c3.161-3.163,7.367-4.905,11.84-4.905c4.473,0,8.679,1.742,11.841,4.905l157.623,157.623
	c3.164,3.164,4.906,7.369,4.906,11.842S494.393,201.559,491.23,204.722z"/>
</svg>