<svg xmlns="http://www.w3.org/2000/svg" xml:space="preserve" width="7.11111in" height="7.11111in" version="1.1" style="shape-rendering:geometricPrecision; text-rendering:geometricPrecision; image-rendering:optimizeQuality; fill-rule:evenodd; clip-rule:evenodd" viewBox="0 0 7111 7111" xmlns:xlink="http://www.w3.org/1999/xlink">
 <defs>
  <style type="text/css">
   
    .fil0 {fill:#666666}
    .fil1 {fill:#E6F7DB}
   
  </style>
 </defs>
 <g id="Layer_x0020_1">
  <metadata id="CorelCorpID_0Corel-Layer"></metadata>
  <path class="fil0" d="M2606 5277c-30,0 -61,-12 -85,-36l-227 -227 -227 227c-47,48 -124,48 -171,0 -47,-47 -47,-123 0,-170l227 -227 -227 -227c-47,-47 -47,-124 0,-171 47,-47 124,-47 171,0l227 227 227 -227c47,-47 124,-47 171,0 47,47 47,124 0,171l-227 227 227 227c76,76 21,206 -86,206zm3889 720l-5879 0c-338,0 -613,-275 -613,-613l0 -3657c0,-338 275,-613 613,-613 297,0 545,212 601,493l4677 0c56,-281 304,-493 601,-493 338,0 613,275 613,613l0 3657c0,338 -275,613 -613,613zm-6250 -613c0,205 166,371 371,371l5879 0c204,0 370,-164 371,-372 0,-204 -166,-371 -371,-371 -205,0 -371,167 -371,372 0,66 -55,121 -121,121 -67,0 -121,-55 -121,-121l0 -3536 -4653 0 0 3536c0,66 -54,121 -121,121 -66,0 -120,-55 -120,-121 0,-205 -167,-372 -372,-372 -205,0 -371,167 -371,372zm371 -613c140,0 268,47 372,126l0 -3170c0,-205 -167,-371 -372,-371 -205,0 -371,166 -371,371l0 3170c103,-79 232,-126 371,-126zm3782 727c-31,0 -62,-13 -85,-36l-1164 -1164c-7,-7 -13,-14 -18,-23l-425 -705c-44,-71 -2,-164 79,-181l1553 -308 -532 -644 -220 381c-34,59 -111,78 -169,42l-521 -326 -1120 987c-50,44 -126,39 -170,-11 -44,-50 -40,-127 10,-171l1188 -1046c40,-35 99,-40 144,-12l491 308 244 -423c42,-73 145,-81 198,-16l772 933c58,70 20,178 -70,196l-1582 314 329 545 1112 1111 752 -99 -704 -936c-40,-53 -30,-129 24,-169 53,-40 129,-29 169,24l828 1100c56,74 11,181 -80,193 -104,13 -1011,136 -1033,136zm-2681 -2893c-107,0 -162,-130 -86,-206l73 -73 -73 -73c-47,-47 -47,-124 0,-171 48,-47 124,-47 171,0l73 73 73 -73c47,-47 123,-47 171,0 47,47 47,124 0,171l-73 73 73 73c76,76 21,206 -86,206 -31,0 -62,-12 -85,-36l-73 -72 -73 72c-23,24 -54,36 -85,36zm3258 1080c-107,0 -162,-129 -86,-206l137 -136 -137 -137c-47,-47 -47,-123 0,-170 48,-48 124,-48 171,0l137 136 136 -136c47,-48 124,-48 171,0 47,47 47,123 0,170l-137 137 137 136c76,77 21,206 -85,206 -31,0 -62,-11 -86,-35l-136 -136 -137 136c-23,24 -54,35 -85,35zm1520 1086c140,0 268,47 371,126l0 -3170c0,-205 -166,-371 -371,-371 -205,0 -371,166 -371,371l0 3170c103,-79 231,-126 371,-126z" id="id_101" style="fill: rgb(0, 0, 0);"></path>
  <path class="fil1" d="M988 4897l0 -3170c0,-205 -167,-371 -372,-371 -205,0 -371,166 -371,371l0 3170c103,-79 232,-126 371,-126 140,0 268,47 372,126z" id="id_102"></path>
  <path class="fil1" d="M6124 1727l0 3170c103,-79 231,-126 371,-126 140,0 268,47 371,126l0 -3170c0,-205 -166,-371 -371,-371 -205,0 -371,166 -371,371z" id="id_103"></path>
 </g>
</svg>