<svg width="19" height="20" viewBox="0 0 19 20" fill="none" xmlns="http://www.w3.org/2000/svg">
<path fill-rule="evenodd" clip-rule="evenodd" d="M13.4421 5.29384C12.742 4.62383 11.5141 3.82207 9.69384 3.82207C7.1304 3.82207 4.95471 5.54637 4.16833 7.92963L4.16833 7.92973C3.97445 8.54477 3.85602 9.20373 3.85602 9.88472C3.85602 10.5656 3.97445 11.2247 4.1791 11.8397L4.17907 11.8397C4.95466 14.223 7.13037 15.9473 9.69384 15.9473C11.1371 15.9473 12.2358 15.5409 13.0544 14.9588L13.0544 14.9588C14.3469 14.0363 14.9286 12.6634 15.0362 11.7518H9.69388V8.08352H18.7954C18.9353 8.69856 19 9.29164 19 10.1044C19 13.1137 17.9444 15.6508 16.1134 17.3752L16.1133 17.3752C14.5084 18.8908 12.3112 19.7694 9.69384 19.7694C5.90242 19.7694 2.62804 17.5508 1.03395 14.3218L1.03397 14.3218C0.37698 12.9818 0 11.4772 0 9.88472C0 8.2922 0.376983 6.7875 1.03398 5.44756L1.03395 5.44754C2.62804 2.21856 5.90242 0 9.69384 0C12.3112 0 14.4977 0.977494 16.1779 2.57003L13.4421 5.29384Z" fill="white"/>
</svg>
