<svg width="22" height="24" viewBox="0 0 22 24" fill="none" xmlns="http://www.w3.org/2000/svg">
<g id="Home">
<path id="Home_2" d="M20.4722 24H14.9722C14.1283 24 13.4444 23.3114 13.4444 22.4615V16.9231C13.4444 16.2431 12.8975 15.6923 12.2222 15.6923H9.77778C9.1025 15.6923 8.55556 16.2431 8.55556 16.9231V22.4615C8.55556 23.3114 7.87172 24 7.02778 24H1.52778C0.683833 24 0 23.3114 0 22.4615V10.7157C0 9.30092 0.644111 7.96431 1.74717 7.08923L10.4323 0.197538C10.7653 -0.0658462 11.2347 -0.0658462 11.5671 0.197538L20.2534 7.08923C21.3565 7.96431 22 9.30031 22 10.7145V22.4615C22 23.3114 21.3162 24 20.4722 24Z" fill="white"/>
</g>
</svg>
