<svg width="24" height="24" viewBox="0 0 24 24" fill="none" xmlns="http://www.w3.org/2000/svg">
<path id="Host" fill-rule="evenodd" clip-rule="evenodd" d="M23.9918 9.16316L22.8666 22.047C22.7638 23.2238 21.7272 24.0946 20.5506 23.9918L7.89631 22.8821C6.71992 22.779 5.84979 21.7411 5.95254 20.5645L6.03549 19.608L16.3794 18.7014C18.34 18.5296 19.7902 16.7998 19.619 14.8388L18.8978 6.5695L22.0474 6.84555C23.2238 6.94866 24.0945 7.98654 23.9918 9.16316ZM16.9207 1.95499L18.0335 14.8351C18.1351 16.0111 17.2651 17.0471 16.0895 17.1501L3.43815 18.2589C2.26154 18.362 1.22413 17.4916 1.12102 16.3148L1.12078 16.3122L0.0080651 3.4321C-0.0935267 2.25616 0.776439 1.22016 1.95204 1.11713L14.6034 0.00829479C15.78 -0.0948299 16.8174 0.775577 16.9205 1.9524L16.9207 1.95499ZM4.55623 6.62902C5.3398 6.56035 5.91943 5.86833 5.85088 5.08335C5.78232 4.29838 5.09156 3.71771 4.30799 3.78638C3.52442 3.85506 2.94477 4.54708 3.01332 5.33205C3.08188 6.11703 3.77266 6.6977 4.55623 6.62902ZM9.15379 10.5397C9.93736 10.471 10.517 9.77898 10.4484 8.994C10.3799 8.20903 9.6891 7.62836 8.90553 7.69703C8.12195 7.76571 7.54233 8.45773 7.61088 9.2427C7.67944 10.0277 8.37022 10.6084 9.15379 10.5397ZM13.7513 14.4503C14.5349 14.3817 15.1145 13.6896 15.046 12.9047C14.9774 12.1197 14.2867 11.539 13.5031 11.6077C12.7195 11.6764 12.1399 12.3684 12.2084 13.1534C12.277 13.9383 12.9678 14.519 13.7513 14.4503Z" fill="#767676"/>
</svg>
