<svg width="495" height="372" viewBox="0 0 495 372" fill="none" xmlns="http://www.w3.org/2000/svg">
<path d="M50.7893 189.798C48.1811 190.207 45.2715 190.5 42.0605 190.679C38.9409 190.925 35.8004 191.296 32.639 191.791C27.9758 192.521 23.6017 193.287 19.5165 194.089C15.4981 194.799 12.5799 195.297 10.7621 195.582C10.5792 195.448 10.3902 195.275 10.195 195.063C9.90837 194.784 9.70935 194.289 9.59794 193.578C9.48653 192.866 9.66413 192.191 10.1307 191.551C12.5809 191.167 14.5134 190.581 15.9285 189.792C17.4226 188.992 18.5091 188.174 19.188 187.338C19.9336 186.412 20.3964 185.489 20.5764 184.57C20.7564 183.651 20.7907 182.836 20.6793 182.125C20.3174 178.781 19.9037 175.363 19.438 171.873C18.96 168.304 18.4858 165.018 18.0154 162.015C17.3841 157.984 16.6675 153.926 15.8657 149.841C15.1306 145.664 14.4055 141.81 13.6904 138.278C13.579 137.567 13.2909 136.762 12.8262 135.863C12.4406 134.952 11.7845 134.123 10.8579 133.377C9.91901 132.553 8.6492 131.942 7.04847 131.545C5.51441 131.056 3.55564 130.958 1.17216 131.251C1.00171 131.196 0.81888 131.063 0.623671 130.851C0.337045 130.572 0.144216 130.116 0.0451844 129.484C-0.0662265 128.772 0.10518 128.057 0.559403 127.338C1.50784 127.19 2.77861 127.031 4.37172 126.863C5.95245 126.615 7.69744 126.382 9.6067 126.164C11.5826 125.855 13.6833 125.566 15.9087 125.299C18.1217 124.952 20.3347 124.605 22.5477 124.259C25.5511 123.788 28.7792 123.202 32.2321 122.499C35.6725 121.717 39.0525 121.066 42.3721 120.547C45.2174 120.101 47.9418 119.917 50.5452 119.995C53.1363 119.994 55.4335 120.444 57.4371 121.345C59.4282 122.167 61.0923 123.485 62.4292 125.3C63.8328 127.024 64.7698 129.387 65.2402 132.391C65.7601 135.71 65.4759 138.548 64.3875 140.905C63.2867 143.183 61.8869 145.103 60.188 146.664C58.5559 148.135 56.8804 149.328 55.1616 150.245C53.5095 151.071 52.3253 151.783 51.6092 152.381C52.3577 152.506 53.7718 152.487 55.8515 152.324C57.9188 152.081 60.1333 152.26 62.4948 152.862C64.844 153.385 67.0094 154.544 68.9911 156.339C71.0517 158.121 72.4039 161.068 73.0476 165.177C73.7037 169.366 73.3728 172.941 72.0548 175.9C70.7369 178.86 68.9372 181.328 66.6556 183.305C64.3616 185.203 61.7563 186.663 58.8396 187.687C55.9228 188.711 53.2394 189.414 50.7893 189.798ZM50.7523 139.154C50.4799 137.415 49.9371 135.759 49.1239 134.186C48.3774 132.522 47.3518 131.144 46.0472 130.052C44.8093 128.87 43.2591 128.019 41.3965 127.501C39.6129 126.971 37.5356 126.891 35.1645 127.263C32.003 127.758 30.1671 129.22 29.6567 131.648C29.2129 133.985 29.3624 137.524 30.1052 142.266C30.4023 144.163 30.6994 146.06 30.9965 147.957C31.3726 149.841 31.7797 151.923 32.2177 154.203C34.5764 153.753 36.9351 153.302 39.2938 152.852C41.7192 152.31 43.8642 151.529 45.7287 150.508C47.5932 149.487 48.9944 148.094 49.9324 146.327C50.9494 144.548 51.2227 142.157 50.7523 139.154ZM57.5741 171.852C57.277 169.955 56.7761 168.05 56.0714 166.136C55.3544 164.143 54.3583 162.436 53.0833 161.017C51.8873 159.584 50.2999 158.497 48.3211 157.754C46.4214 156.999 44.1279 156.832 41.4407 157.253C39.6228 157.537 37.9483 157.962 36.4171 158.525C34.8859 159.089 33.777 159.506 33.0904 159.775C33.2171 161.618 33.4042 163.33 33.6518 164.91C33.887 166.412 34.116 167.874 34.3388 169.297C34.673 171.431 35.0134 173.604 35.3601 175.817C35.7857 178.018 36.3004 180.528 36.9041 183.349C37.9268 183.675 38.91 184.007 39.8537 184.345C40.864 184.591 41.8682 184.798 42.8661 184.966C43.9307 185.042 45.0682 185.066 46.2785 185.039C47.5678 184.999 49.0424 184.849 50.7021 184.589C54.0217 184.069 56.1319 182.807 57.0327 180.804C58.0125 178.788 58.193 175.804 57.5741 171.852Z" fill="black"/>
<path d="M114.176 121.591C107.031 125.407 100.479 126.298 94.5188 124.266C88.5589 122.234 83.6006 117.513 79.6439 110.103L53.6423 61.4106C49.6856 54.0008 48.5203 47.2544 50.1466 41.1712C51.7729 35.088 56.1586 30.1387 63.3037 26.3232C70.4488 22.5078 77.0013 21.6162 82.9611 23.6484C88.921 25.6806 93.8793 30.4016 97.8361 37.8114L123.838 86.5039C127.794 93.9136 128.96 100.66 127.333 106.743C125.707 112.826 121.321 117.776 114.176 121.591ZM107.111 108.36C112.139 105.675 113.028 101.289 109.777 95.2023L82.7867 44.6573C79.5365 38.5708 75.3973 36.87 70.3693 39.5549C65.3413 42.2398 64.4524 46.6256 67.7026 52.7122L94.6933 103.257C97.9435 109.344 102.083 111.044 107.111 108.36Z" fill="black"/>
<path d="M206.384 194.646C206.105 195.46 205.641 196.253 204.991 197.025C204.351 197.705 203.568 197.993 202.64 197.889C199.672 197.557 196.653 196.844 193.582 195.749C190.512 194.654 187.492 193.94 184.524 193.608C180.907 193.203 177.243 193.216 173.532 193.646C169.903 194.179 166.327 194.248 162.802 193.854C162.245 193.792 161.756 193.549 161.334 193.126C160.912 192.703 160.541 192.239 160.222 191.734C160.346 190.621 160.852 189.879 161.739 189.509C162.728 189.056 163.842 188.758 165.079 188.615C166.409 188.482 167.692 188.343 168.929 188.2C170.269 187.974 171.403 187.491 172.331 186.75C171.52 182.245 170.751 177.792 170.023 173.39C169.305 168.896 168.252 164.458 166.864 160.076C167.741 158.953 168.247 157.789 168.382 156.583C168.485 155.656 167.862 154.928 166.513 154.402C165.173 153.782 163.581 153.322 161.736 153.022C159.995 152.639 158.289 152.355 156.62 152.168C154.95 151.981 153.791 151.851 153.141 151.778C151.75 151.623 150.786 151.844 150.25 152.441C149.816 152.956 149.229 153.172 148.487 153.089C148.116 153.047 147.729 152.722 147.328 152.114C146.926 151.506 146.447 151.17 145.891 151.108C144.314 150.931 142.758 150.992 141.222 151.29C139.686 151.588 138.037 151.638 136.274 151.441C134.141 151.202 132.502 151.582 131.357 152.581C130.212 153.58 129.268 154.883 128.525 156.49C127.874 158.108 127.259 159.823 126.681 161.637C126.195 163.461 125.596 165.037 124.884 166.366C124.182 167.603 123.299 169.194 122.236 171.142C121.276 173.006 120.713 174.681 120.547 176.165C120.36 177.834 120.787 179.056 121.827 179.83C122.961 180.614 124.197 181.316 125.536 181.936C126.979 182.473 128.318 183.092 129.555 183.794C130.791 184.496 131.47 185.558 131.593 186.98C130.84 187.835 129.943 188.298 128.902 188.37C127.871 188.348 126.845 188.28 125.825 188.166C124.248 187.99 122.692 187.628 121.157 187.08C119.714 186.543 118.205 186.187 116.628 186.01C115.422 185.875 113.783 185.833 111.712 185.883C109.65 185.84 108.078 186.039 106.996 186.482L105.992 185.383C104.394 185.392 102.776 185.587 101.137 185.967C99.5902 186.357 98.0287 186.464 96.4518 186.288C96.1736 186.257 95.8129 186.123 95.3699 185.885C94.9165 185.741 94.5095 185.601 94.1489 185.467L93.7792 183.735C98.5947 180.987 102.88 177.944 106.634 174.608C110.481 171.282 113.499 166.971 115.688 161.675C116.071 160.778 116.726 159.114 117.656 156.682C118.689 154.168 119.819 151.618 121.048 149.032C122.287 146.353 123.536 144.004 124.795 141.985C126.054 139.966 127.193 139.014 128.214 139.128L129.125 139.793L130.116 138.495L128.261 137.443C128.344 136.701 128.417 136.051 128.479 135.495C128.634 134.949 128.661 134.294 128.558 133.531C129.198 132.852 130.193 131.507 131.545 129.498C132.99 127.5 134.517 125.182 136.127 122.545C137.84 119.825 139.569 116.966 141.313 113.968C143.15 110.981 144.781 108.158 146.205 105.5C147.733 102.76 148.987 100.364 149.968 98.3138C150.959 96.1708 151.501 94.6818 151.594 93.847C151.844 91.6209 151.572 89.8531 150.779 88.5435C150.079 87.2443 149.111 86.2437 147.875 85.5419C146.649 84.7473 145.258 84.169 143.702 83.807C142.146 83.4451 140.724 83.1451 139.436 82.907C138.158 82.5762 137.076 82.1733 136.19 81.6985C135.397 81.2341 135.057 80.4917 135.171 79.4714C135.254 78.7294 135.657 78.0701 136.379 77.4934C137.101 76.9168 137.833 76.67 138.575 76.7531C141.265 77.0541 143.82 77.7157 146.242 78.738C148.766 79.6779 151.28 80.288 153.785 80.5683C154.434 80.6409 154.965 80.5125 155.377 80.183C155.883 79.8639 156.46 79.7407 157.109 79.8133C159.799 80.1143 162.494 80.369 165.195 80.5772C167.905 80.6927 170.605 80.901 173.295 81.202C174.037 81.285 174.661 81.5896 175.165 82.1156C175.763 82.6521 176.02 83.2913 175.937 84.0333C175.885 84.4971 175.648 84.9401 175.225 85.3624C174.812 85.6919 174.348 86.0625 173.832 86.4744C173.327 86.7935 172.863 87.1642 172.44 87.5865C172.027 87.916 171.8 88.2662 171.759 88.6373C171.437 91.5126 171.542 95.6097 172.074 100.929C172.709 106.165 173.565 111.943 174.642 118.262C175.812 124.591 177.183 131.225 178.755 138.162C180.429 145.018 182.135 151.595 183.872 157.894C185.619 164.1 187.336 169.739 189.022 174.812C190.812 179.802 192.453 183.601 193.945 186.21C193.873 186.859 194.351 187.617 195.381 188.484C196.504 189.361 197.766 190.253 199.167 191.161C200.578 191.977 201.995 192.746 203.417 193.468C204.849 194.098 205.838 194.491 206.384 194.646ZM162.409 143.236C160.367 132.113 157.633 121.289 154.209 110.763C153.477 111.432 152.776 112.246 152.105 113.204C151.527 114.172 151.134 115.161 150.928 116.171C150.483 118.469 149.569 120.762 148.186 123.049C146.803 125.336 145.337 127.52 143.79 129.601C142.242 131.682 140.808 133.587 139.487 135.318C138.259 137.059 137.583 138.486 137.459 139.599C137.355 140.526 137.509 141.248 137.921 141.764C138.364 142.001 138.992 142.259 139.806 142.538C140.631 142.724 141.45 142.957 142.264 143.236C143.171 143.525 144.036 143.763 144.861 143.949C145.685 144.135 146.376 144.259 146.932 144.322C149.065 144.56 151.003 144.449 152.746 143.986C154.591 143.441 156.627 143.293 158.853 143.543C159.409 143.605 160.012 143.672 160.661 143.745C161.321 143.725 161.904 143.555 162.409 143.236Z" fill="black"/>
<path d="M336.517 34.1426L329.804 44.0294L194.411 89.266L187.915 69.8225L332.792 21.417L327.718 0.707642L346.536 4.17294L366.436 84.2437C349.58 97.4317 332.43 106.324 314.988 110.922L280.897 85.4105L279.567 105.887L230.104 143.237L231.619 161.182L212.72 155.898L210.569 132.103L263.904 92.1423L265.08 77.5159L278.121 73.1586L307.149 92.9816C323.431 87.5416 336.26 80.9708 345.636 73.2694L336.517 34.1426Z" fill="black"/>
<path d="M266.525 248.313C266.876 248.484 266.989 248.81 266.863 249.292C266.825 249.816 266.631 250.102 266.283 250.149L248.465 249.942C247.853 249.861 247.459 249.778 247.283 249.693C246.142 249.137 245.647 247.701 245.797 245.385C245.948 243.07 246.813 240.179 248.392 236.713C243.477 238.554 238.707 239.652 234.083 240.006C229.546 240.403 225.083 239.532 220.694 237.395C217.007 235.599 214.097 232.879 211.963 229.233C209.917 225.631 208.847 221.472 208.754 216.757C208.792 211.997 210.008 207.159 212.401 202.244C215.437 196.012 219.559 191.449 224.768 188.557C229.978 185.664 235.443 184.253 241.164 184.324C246.885 184.396 252.028 185.543 256.592 187.766C261.244 190.031 264.902 193.224 267.565 197.345L281.928 167.852C283.467 164.692 284.227 162.238 284.209 160.492C284.279 158.788 283.523 157.552 281.944 156.782C280.802 156.227 278.484 155.858 274.989 155.676L274.726 155.548C274.375 155.377 274.197 155.073 274.192 154.636C274.318 154.155 274.556 153.89 274.905 153.843L295.602 153.823C295.82 153.821 296.061 153.884 296.324 154.012C296.5 154.098 296.655 154.336 296.79 154.728C297.056 155.074 297.124 155.379 296.996 155.643L258.074 235.563C256.535 238.723 255.775 241.177 255.793 242.923C255.899 244.712 256.786 246.013 258.454 246.825C260.999 248.065 263.581 248.562 266.198 248.316L266.525 248.313ZM228.137 235.156C231.297 236.695 234.601 237.381 238.049 237.214C241.539 236.959 245.329 236.09 249.418 234.606L263.525 205.64C262.829 201.717 261.593 198.346 259.817 195.526C258.041 192.706 255.354 190.42 251.755 188.668C246.225 185.975 240.874 185.812 235.703 188.18C230.662 190.504 226.389 195.264 222.883 202.462C220.532 207.29 219.205 211.91 218.902 216.323C218.599 220.737 219.228 224.573 220.79 227.831C222.441 231.133 224.889 233.574 228.137 235.156Z" fill="black"/>
<path d="M176.763 330.558C175.949 329.77 175.936 328.968 176.724 328.154C177.04 327.829 177.514 327.42 178.147 326.929C178.86 326.357 179.615 325.984 180.414 325.811C183.66 328.324 186.488 329.721 188.896 330.003C191.305 330.285 193.577 329.488 195.711 327.61C196.817 326.63 198.515 325.04 200.804 322.84C203.172 320.558 206.703 317.931 209.542 315C212.54 312.067 214.531 309.155 331.322 196.945C333.924 194.258 336.249 191.776 338.296 189.499C340.504 187.22 342.079 185.512 343.023 184.374C344.518 182.667 345.336 181.171 345.476 179.887C345.697 178.681 345.194 177.327 343.968 175.823L339.923 170.959C339.353 170.407 339.383 169.805 340.014 169.154C341.197 167.933 342.668 167.228 344.428 167.04C346.125 167.894 348.069 169.145 350.259 170.793C352.45 172.442 354.278 173.975 355.743 175.394C357.534 177.129 358.362 178.799 358.228 180.404C358.172 181.928 357.198 183.667 355.306 185.62C352.07 188.798 348.126 192.708 343.471 197.351C338.977 201.992 334.64 206.469 330.462 210.784C212.961 323.727 209.886 326.902 207.284 329.589C204.764 332.354 202.519 334.835 200.55 337.03C198.821 339.142 198.571 341.029 199.8 342.693C200.128 343.168 200.7 343.88 201.517 344.829C202.494 345.775 203.431 346.762 204.329 347.79C205.388 348.815 206.12 349.524 206.528 349.919C206.133 350.326 205.58 350.815 204.868 351.388C204.237 352.039 203.643 352.489 203.086 352.739C202.054 353.316 201.296 353.529 200.812 353.376C200.329 353.224 200.006 353.069 199.843 352.911L176.763 330.558ZM368.611 160.641C366.657 158.749 365.62 156.562 365.501 154.079C365.381 151.596 366.149 149.5 367.804 147.79C369.618 145.918 371.767 145.002 374.252 145.042C376.816 145.001 379.075 145.927 381.029 147.819C382.902 149.632 383.818 151.782 383.777 154.267C383.897 156.75 383.051 158.927 381.237 160.8C379.581 162.509 377.511 163.344 375.026 163.304C372.622 163.342 370.484 162.455 368.611 160.641Z" fill="black"/>
<path d="M349.724 371.659L345.906 359.946L355.185 356.921C359.039 355.665 361.529 354.011 362.656 351.961C363.783 349.911 363.718 346.959 362.462 343.105L337.718 267.197L319.007 273.296L315.436 262.343L334.147 256.244L330.23 244.226C327.684 236.417 327.726 230.177 330.354 225.506C332.982 220.835 338.1 217.259 345.706 214.78L363.808 208.879L367.577 220.44L350.235 226.093C346.483 227.316 344.009 229.02 342.814 231.205C341.687 233.255 341.752 236.207 343.008 240.061L346.925 252.078L374.916 242.954L378.486 253.907L350.496 263.031L375.24 338.94C377.786 346.749 377.744 352.989 375.116 357.66C372.488 362.331 367.421 365.89 359.916 368.337L349.724 371.659Z" fill="black"/>
<path d="M378.17 224.864C378.334 224.034 378.593 223.057 378.948 221.932C379.304 220.808 379.953 220.04 380.897 219.63C381.433 219.271 382.096 218.938 382.887 218.63C383.742 218.334 384.622 218.077 385.528 217.858C386.498 217.652 387.423 217.503 388.304 217.412C389.172 217.384 389.894 217.427 390.469 217.541C392.321 217.907 393.995 218.504 395.49 219.331C396.973 220.221 398.673 220.856 400.589 221.235L403.271 221.765C403.412 221.727 403.705 221.586 404.151 221.342C404.598 221.099 405.089 220.798 405.624 220.439C406.211 220.157 406.734 219.862 407.193 219.555C407.703 219.324 408.073 219.131 408.302 218.978C408.379 218.926 408.519 218.722 408.722 218.364C408.913 218.07 409.117 217.712 409.333 217.29C409.613 216.881 409.855 216.497 410.058 216.139C410.326 215.794 410.472 215.558 410.497 215.43C410.637 215.391 410.937 215.218 411.396 214.911C411.843 214.667 412.078 214.482 412.104 214.354C413.097 213.356 414.193 212.013 415.389 210.325C416.65 208.65 417.833 206.86 418.94 204.955C420.111 203.063 421.147 201.177 422.05 199.298C422.952 197.419 423.536 195.809 423.801 194.468C423.864 194.149 423.832 193.977 423.704 193.951C423.368 191.96 422.86 190.167 422.18 188.573C421.5 186.978 420.973 185.281 420.599 183.482C420.353 182.04 420.203 180.616 420.149 179.212C420.095 177.808 420.041 176.403 419.987 174.999C419.997 173.607 419.974 172.209 419.92 170.805C419.93 169.413 419.838 168.034 419.643 166.668C419.437 165.698 419.16 164.748 418.814 163.817C418.48 162.821 418.139 161.858 417.792 160.927C417.446 159.995 417.131 159.07 416.848 158.152C416.578 157.169 416.435 156.212 416.421 155.28L417.141 151.639C417.164 150.848 417.099 150.005 416.944 149.112C416.789 148.218 416.601 147.319 416.383 146.413C416.164 145.506 415.938 144.632 415.707 143.79C415.539 142.961 415.422 142.208 415.357 141.531C415.395 141.339 415.337 140.963 415.182 140.401C415.104 139.789 415.084 139.387 415.122 139.195C414.952 137.038 414.705 134.931 414.381 132.876C414.134 130.77 413.951 128.677 413.831 126.596C413.844 126.532 413.85 126.334 413.849 126.002C413.848 125.67 413.822 125.3 413.77 124.891C413.795 124.432 413.807 124.036 413.806 123.704C413.818 123.308 413.836 123.046 413.862 122.918C413.537 120.531 412.906 118.018 411.969 115.377C411.095 112.748 410.043 110.35 408.812 108.182C408.479 107.519 407.916 106.843 407.123 106.156C406.342 105.404 405.562 104.652 404.781 103.901C404.077 103.098 403.444 102.276 402.88 101.434C402.393 100.541 402.244 99.6161 402.434 98.6581C402.535 98.1472 402.77 97.7955 403.14 97.6032C403.51 97.4109 403.931 97.2951 404.403 97.2558C404.939 97.2291 405.463 97.2663 405.974 97.3673C406.497 97.4045 406.951 97.461 407.334 97.5368C408.611 97.7894 409.749 98.2466 410.746 98.9085C411.743 99.5703 412.785 100.009 413.871 100.223L414.541 100.356C415.001 100.38 415.652 100.443 416.495 100.543C417.402 100.656 418.277 100.763 419.12 100.863C420.026 100.976 420.799 101.096 421.438 101.222C422.089 101.285 422.485 101.297 422.625 101.258C422.689 101.271 422.913 101.315 423.296 101.391C423.756 101.415 424.209 101.472 424.656 101.56C425.18 101.597 425.665 101.66 426.112 101.748C426.572 101.773 426.865 101.798 426.993 101.823C428.015 102.025 429.241 102.201 430.672 102.352C432.102 102.502 433.264 102.665 434.158 102.842C434.733 102.956 435.327 103.14 435.941 103.394C436.618 103.66 437.212 104.01 437.724 104.443C438.299 104.889 438.728 105.405 439.01 105.992C439.356 106.591 439.454 107.274 439.302 108.04C439.125 108.935 438.795 109.599 438.31 110.034C437.839 110.406 437.278 110.726 436.627 110.996C436.053 111.214 435.441 111.458 434.79 111.727C434.139 111.997 433.559 112.413 433.05 112.976C432.388 113.973 431.956 114.817 431.753 115.507C431.55 116.197 431.335 117.116 431.108 118.266C430.855 119.543 430.666 120.667 430.54 121.638C430.427 122.545 430.487 123.585 430.719 124.759C430.745 124.964 430.842 125.48 431.01 126.31C431.254 127.088 431.486 127.931 431.705 128.837C432 129.691 432.238 130.502 432.419 131.267C432.663 132.046 432.83 132.543 432.92 132.76C432.958 132.9 432.965 133.201 432.941 133.66C432.993 134.069 433 134.535 432.963 135.058C432.938 135.518 432.914 135.978 432.889 136.437C432.865 136.897 432.878 137.165 432.929 137.242C432.87 139.553 432.933 141.921 433.117 144.347C433.314 146.708 433.593 148.987 433.955 151.182C434.048 152.727 434.421 154.194 435.075 155.585C435.793 156.988 436.333 158.455 436.693 159.986C436.81 160.739 436.863 161.646 436.853 162.705C436.855 163.701 436.895 164.672 436.974 165.616C437.116 166.574 437.38 167.422 437.764 168.162C438.213 168.914 438.948 169.391 439.97 169.594C440.545 169.707 440.998 169.764 441.33 169.763C441.738 169.711 442.14 169.359 442.534 168.707C443.362 167.543 444.208 166.284 445.073 164.929C445.951 163.51 446.823 162.122 447.688 160.767C447.956 160.422 448.541 159.642 449.445 158.427C450.413 157.225 451.432 155.933 452.501 154.552C453.584 153.106 454.57 151.808 455.462 150.657C456.429 149.455 457.009 148.707 457.2 148.413C457.301 148.234 457.473 147.87 457.714 147.32C457.956 146.771 458.242 146.163 458.572 145.499C458.903 144.834 459.189 144.227 459.43 143.678C459.672 143.128 459.843 142.764 459.945 142.585C459.97 142.457 460.123 142.189 460.403 141.779C460.696 141.306 460.855 141.006 460.88 140.878C461.567 139.753 462.146 138.673 462.616 137.638C463.099 136.539 463.537 135.497 463.931 134.513C464.337 133.465 464.711 132.411 465.054 131.351C465.46 130.303 465.911 129.198 466.407 128.035C466.432 127.907 466.61 127.677 466.941 127.344C467.337 127.024 467.547 126.8 467.572 126.672L468.102 123.99C468.153 123.734 468.127 123.364 468.023 122.879C467.92 122.394 467.785 121.903 467.618 121.405C467.464 120.844 467.297 120.346 467.117 119.913C466.95 119.415 466.847 119.096 466.809 118.956C466.475 118.293 465.842 117.636 464.908 116.987C464.039 116.351 463.131 115.74 462.185 115.154C461.315 114.518 460.535 113.932 459.844 113.397C459.218 112.875 458.949 112.391 459.037 111.944C459.163 111.305 459.584 110.857 460.298 110.6C461.025 110.279 461.861 110.08 462.806 110.001C463.75 109.923 464.651 109.901 465.506 109.938C466.425 109.987 467.141 110.062 467.652 110.163C468.737 110.378 469.734 110.708 470.641 111.153C471.625 111.546 472.756 111.87 474.033 112.122C474.864 112.286 475.643 112.54 476.372 112.883C477.177 113.175 478.058 113.416 479.016 113.605C480.102 113.82 481.022 114.035 481.775 114.251C482.593 114.479 483.545 114.7 484.63 114.915C485.525 115.092 486.374 115.16 487.178 115.12C487.995 115.016 488.914 115.065 489.936 115.267C490.447 115.368 490.984 115.508 491.546 115.685C492.185 115.812 492.74 116.021 493.214 116.314C493.763 116.555 494.16 116.899 494.403 117.345C494.711 117.804 494.801 118.353 494.675 118.992C494.498 119.886 493.714 120.66 492.324 121.314C491.01 121.917 489.498 122.514 487.789 123.105C486.079 123.696 484.37 124.287 482.66 124.878C481.014 125.482 479.758 126.129 478.891 126.821C478.266 127.294 477.815 127.902 477.535 128.643C477.32 129.397 476.983 130.093 476.525 130.733C476.423 130.912 476.155 131.257 475.722 131.769C475.366 132.229 474.965 132.747 474.519 133.322C474.074 133.898 473.628 134.473 473.182 135.049C472.813 135.573 472.61 135.931 472.572 136.123C472.495 136.174 472.323 136.372 472.056 136.718C471.865 137.012 471.629 137.363 471.349 137.772C471.082 138.118 470.815 138.463 470.547 138.808C470.344 139.166 470.204 139.371 470.127 139.422C470.102 139.55 469.962 139.754 469.707 140.036C469.516 140.33 469.376 140.535 469.287 140.65C469.198 140.765 468.994 140.957 468.676 141.226C468.421 141.507 468.134 141.782 467.815 142.051C467.561 142.332 467.274 142.607 466.955 142.876C466.701 143.158 466.535 143.324 466.459 143.375C466.369 143.49 466.14 143.81 465.771 144.334C465.478 144.807 465.141 145.338 464.759 145.926C464.378 146.514 464.034 147.077 463.729 147.614C463.424 148.151 463.252 148.515 463.214 148.706C463.048 148.873 462.577 149.41 461.8 150.318C461.1 151.175 460.349 152.122 459.546 153.158C458.744 154.194 457.987 155.172 457.274 156.093C456.561 157.014 456.141 157.627 456.013 157.934C455.555 158.573 455.104 159.347 454.659 160.254C454.278 161.174 453.858 162.12 453.401 163.091C453.02 164.012 452.607 164.925 452.162 165.833C451.729 166.676 451.31 167.456 450.903 168.172C449.109 171.202 447.155 174.034 445.041 176.669C443.004 179.252 441.107 181.963 439.351 184.802C439.262 184.917 439.109 185.185 438.893 185.607C438.677 186.029 438.423 186.476 438.13 186.949C437.914 187.371 437.666 187.786 437.386 188.196C437.17 188.617 437.017 188.886 436.928 189.001C436.164 190.177 435.427 191.558 434.715 193.143C434.067 194.74 433.234 196.102 432.215 197.227C432.138 197.279 431.928 197.502 431.584 197.899C431.253 198.232 430.884 198.59 430.476 198.974C430.055 199.422 429.641 199.837 429.234 200.221C428.89 200.618 428.673 200.874 428.584 200.989C428.52 200.976 428.425 201.123 428.298 201.43C428.158 201.801 428.012 202.203 427.86 202.637C427.708 203.072 427.562 203.474 427.422 203.845C427.282 204.216 427.206 204.433 427.193 204.497C426.952 205.046 426.615 205.743 426.183 206.586C425.738 207.494 425.299 208.369 424.867 209.213C424.422 210.12 424.034 210.907 423.704 211.571C423.373 212.236 423.163 212.626 423.074 212.741C421.153 216.077 418.823 218.968 416.083 221.412C413.343 223.857 410.597 226.333 407.844 228.842C407.832 228.906 407.628 229.098 407.233 229.418C406.889 229.814 406.513 230.205 406.105 230.588C405.685 231.036 405.271 231.452 404.863 231.836C404.519 232.233 404.309 232.456 404.233 232.508C403.99 232.725 403.461 233.052 402.645 233.488C401.88 234 401.077 234.538 400.235 235.102C399.394 235.665 398.591 236.203 397.826 236.716C397.061 237.228 396.557 237.593 396.315 237.811C394.501 237.585 392.765 237.639 391.106 237.975C389.511 238.323 387.851 238.327 386.126 237.986C382.486 237.266 380.063 235.758 378.858 233.462C377.704 231.243 377.475 228.377 378.17 224.864Z" fill="black"/>
</svg>
