<svg width="351" height="261" viewBox="0 0 351 261" fill="none" xmlns="http://www.w3.org/2000/svg">
<path d="M44.1771 153.006C42.4968 153.223 40.6252 153.36 38.5623 153.418C36.5568 153.521 34.5357 153.704 32.499 153.966C29.4948 154.353 26.6754 154.767 24.0408 155.21C21.4505 155.595 19.5698 155.863 18.3987 156.014C18.2838 155.925 18.1656 155.811 18.0441 155.671C17.8651 155.487 17.7461 155.166 17.6871 154.708C17.6281 154.25 17.7539 153.819 18.0645 153.417C19.6429 153.214 20.8929 152.872 21.8145 152.391C22.787 151.903 23.4983 151.398 23.9485 150.874C24.4431 150.293 24.7562 149.709 24.8877 149.122C25.0193 148.536 25.0556 148.014 24.9966 147.556C24.8232 145.404 24.6177 143.205 24.3803 140.958C24.1363 138.66 23.8897 136.543 23.6407 134.609C23.3064 132.012 22.918 129.396 22.4754 126.761C22.0771 124.069 21.6796 121.584 21.2828 119.306C21.2238 118.848 21.0531 118.326 20.7708 117.741C20.5394 117.15 20.1331 116.607 19.5518 116.112C18.964 115.567 18.1601 115.153 17.1403 114.87C16.1647 114.53 14.9099 114.432 13.3758 114.578C13.2675 114.54 13.1525 114.452 13.031 114.312C12.852 114.128 12.7363 113.832 12.6839 113.425C12.6249 112.967 12.7474 112.511 13.0514 112.058C13.6624 111.979 14.4804 111.9 15.5053 111.819C16.5237 111.688 17.6472 111.57 18.8757 111.463C20.1487 111.299 21.5013 111.151 22.9336 111.019C24.3593 110.835 25.785 110.652 27.2107 110.468C29.1456 110.219 31.2267 109.899 33.4539 109.509C35.6747 109.068 37.8543 108.71 39.9929 108.435C41.8259 108.199 43.5768 108.129 45.2455 108.224C46.9076 108.269 48.3734 108.598 49.6429 109.211C50.9057 109.773 51.9501 110.648 52.7758 111.836C53.646 112.966 54.2056 114.499 54.4546 116.434C54.7299 118.572 54.4978 120.388 53.7582 121.881C53.0121 123.323 52.0804 124.529 50.9633 125.501C49.8904 126.416 48.7947 127.152 47.676 127.71C46.6017 128.211 45.8296 128.647 45.3598 129.018C45.8377 129.112 46.7451 129.124 48.0821 129.056C49.4125 128.936 50.8299 129.09 52.3343 129.518C53.8321 129.894 55.2008 130.676 56.4405 131.862C57.7311 133.042 58.5468 134.955 58.8876 137.603C59.235 140.302 58.96 142.589 58.0626 144.464C57.1652 146.339 55.9674 147.891 54.4691 149.119C52.9643 150.296 51.2673 151.188 49.3783 151.793C47.4893 152.399 45.7556 152.803 44.1771 153.006ZM45.0421 120.518C44.8979 119.398 44.5788 118.326 44.0847 117.303C43.6351 116.222 43.0013 115.32 42.1836 114.597C41.4103 113.817 40.4307 113.244 39.245 112.879C38.1102 112.507 36.779 112.42 35.2515 112.616C33.2147 112.879 32.0114 113.784 31.6413 115.333C31.3157 116.824 31.3494 119.097 31.7427 122.152C31.9 123.374 32.0573 124.596 32.2146 125.818C32.4228 127.034 32.6474 128.377 32.8884 129.847C34.4093 129.599 35.9303 129.352 37.4513 129.104C39.0167 128.799 40.4063 128.335 41.6203 127.713C42.8343 127.091 43.7576 126.222 44.3903 125.105C45.0739 123.982 45.2912 122.453 45.0421 120.518ZM48.8444 141.613C48.6871 140.391 48.3992 139.16 47.9808 137.92C47.5558 136.629 46.9468 135.517 46.1538 134.583C45.4117 133.644 44.4125 132.918 43.1562 132.407C41.9508 131.889 40.4825 131.742 38.7513 131.965C37.5801 132.116 36.4985 132.358 35.5064 132.693C34.5142 133.028 33.7956 133.276 33.3504 133.436C33.3993 134.621 33.4893 135.722 33.6204 136.74C33.7449 137.708 33.8662 138.65 33.9841 139.566C34.1611 140.941 34.3413 142.341 34.5248 143.767C34.7593 145.186 35.0454 146.806 35.3832 148.626C36.0335 148.852 36.6584 149.083 37.2578 149.316C37.9016 149.492 38.5421 149.642 39.1793 149.767C39.8609 149.835 40.5902 149.871 41.367 149.874C42.1948 149.871 43.1434 149.801 44.2127 149.663C46.3512 149.388 47.727 148.615 48.34 147.346C49.004 146.07 49.1721 144.159 48.8444 141.613Z" fill="white"/>
<path d="M86.2868 111.368C81.6363 113.69 77.4173 114.147 73.6298 112.739C69.8423 111.331 66.7445 108.215 64.3363 103.393L48.5111 71.7007C46.103 66.878 45.4739 62.5298 46.6239 58.6561C47.7739 54.7823 50.6741 51.6844 55.3245 49.3622C59.9749 47.04 64.1939 46.583 67.9814 47.9913C71.7689 49.3995 74.8668 52.515 77.275 57.3376L93.1001 89.0295C95.5083 93.8522 96.1374 98.2004 94.9874 102.074C93.8374 105.948 90.9372 109.046 86.2868 111.368ZM81.9864 102.756C85.259 101.122 85.9062 98.3242 83.928 94.3627L67.5008 61.4652C65.5227 57.5037 62.8973 56.34 59.6248 57.9741C56.3523 59.6082 55.7051 62.406 57.6832 66.3675L74.1104 99.2651C76.0886 103.227 78.7139 104.39 81.9864 102.756Z" fill="white"/>
<path d="M143.916 160.06C143.723 160.577 143.411 161.078 142.98 161.562C142.558 161.987 142.05 162.158 141.457 162.075C139.559 161.81 137.635 161.299 135.684 160.543C133.734 159.787 131.809 159.276 129.911 159.011C127.598 158.688 125.247 158.631 122.859 158.842C120.522 159.12 118.226 159.102 115.972 158.787C115.616 158.737 115.307 158.573 115.043 158.295C114.78 158.016 114.55 157.712 114.354 157.382C114.454 156.67 114.791 156.203 115.366 155.981C116.009 155.708 116.729 155.536 117.525 155.466C118.38 155.404 119.206 155.338 120.002 155.268C120.865 155.147 121.601 154.856 122.21 154.397C121.769 151.493 121.353 148.623 120.963 145.787C120.582 142.891 119.984 140.026 119.171 137.19C119.753 136.486 120.098 135.748 120.205 134.976C120.288 134.383 119.901 133.906 119.045 133.544C118.196 133.123 117.183 132.801 116.005 132.575C114.895 132.299 113.806 132.087 112.738 131.938C111.67 131.788 110.929 131.685 110.513 131.627C109.624 131.503 109.001 131.627 108.647 132.001C108.36 132.324 107.979 132.452 107.505 132.386C107.267 132.353 107.025 132.137 106.778 131.74C106.531 131.343 106.23 131.119 105.874 131.07C104.866 130.929 103.866 130.94 102.876 131.104C101.885 131.268 100.826 131.272 99.6994 131.114C98.335 130.924 97.2769 131.139 96.525 131.759C95.773 132.38 95.1445 133.199 94.6395 134.217C94.1937 135.244 93.7694 136.333 93.3664 137.487C93.0227 138.648 92.6107 139.649 92.1305 140.489C91.6586 141.27 91.0646 142.275 90.3484 143.506C89.6999 144.685 89.3093 145.749 89.1767 146.698C89.0276 147.766 89.2799 148.557 89.9337 149.072C90.6468 149.595 91.4276 150.067 92.2759 150.488C93.1919 150.858 94.0402 151.279 94.821 151.75C95.6017 152.222 96.0189 152.916 96.0726 153.83C95.5745 154.365 94.9909 154.647 94.3218 154.674C93.661 154.642 93.0044 154.581 92.3519 154.49C91.3435 154.349 90.3516 154.089 89.3764 153.711C88.4604 153.341 87.4982 153.086 86.4898 152.945C85.7187 152.838 84.6682 152.782 83.3383 152.777C82.0167 152.714 81.0048 152.814 80.3026 153.079L79.6778 152.357C78.6528 152.334 77.6112 152.431 76.5531 152.646C75.5543 152.869 74.5507 152.91 73.5423 152.769C73.3643 152.745 73.1353 152.652 72.8553 152.492C72.567 152.391 72.3084 152.295 72.0794 152.202L71.8726 151.085C75.0099 149.406 77.812 147.53 80.2789 145.456C82.8052 143.389 84.8169 140.677 86.3142 137.318C86.575 136.75 87.0249 135.694 87.6639 134.15C88.3705 132.555 89.1405 130.939 89.974 129.302C90.8157 127.605 91.6582 126.12 92.5012 124.847C93.3443 123.574 94.0921 122.983 94.7446 123.074L95.3178 123.517L95.9759 122.702L94.8048 121.994C94.8711 121.519 94.9291 121.104 94.9788 120.748C95.0878 120.401 95.1162 119.981 95.0638 119.49C95.486 119.065 96.1483 118.221 97.0507 116.956C98.0125 115.699 99.0329 114.239 100.112 112.575C101.259 110.861 102.418 109.057 103.589 107.165C104.82 105.28 105.916 103.498 106.876 101.818C107.904 100.087 108.751 98.5724 109.416 97.2744C110.089 95.917 110.463 94.9714 110.538 94.4375C110.737 93.0139 110.593 91.8751 110.108 91.0211C109.682 90.1754 109.078 89.5165 108.297 89.0446C107.525 88.5134 106.643 88.118 105.651 87.8585C104.659 87.599 103.752 87.3816 102.93 87.2063C102.116 86.9716 101.429 86.6942 100.869 86.3741C100.368 86.0623 100.164 85.5801 100.255 84.9276C100.321 84.453 100.591 84.0371 101.064 83.6799C101.537 83.3227 102.011 83.1772 102.486 83.2435C104.206 83.4838 105.834 83.9531 107.369 84.6514C108.972 85.2986 110.574 85.7341 112.176 85.9578C112.591 86.0158 112.934 85.9428 113.204 85.7386C113.534 85.5428 113.906 85.4739 114.322 85.5319C116.042 85.7722 117.766 85.9828 119.495 86.1638C121.232 86.2855 122.96 86.4664 124.68 86.7067C125.155 86.773 125.549 86.9793 125.864 87.3256C126.238 87.6802 126.392 88.0948 126.325 88.5693C126.284 88.8659 126.124 89.146 125.845 89.4094C125.575 89.6135 125.27 89.8432 124.932 90.0983C124.603 90.2942 124.298 90.5238 124.02 90.7873C123.749 90.9914 123.597 91.2121 123.564 91.4494C123.307 93.2883 123.303 95.9183 123.551 99.3396C123.866 102.71 124.314 106.431 124.894 110.504C125.534 114.584 126.296 118.864 127.183 123.342C128.137 127.769 129.116 132.018 130.119 136.089C131.131 140.101 132.134 143.749 133.126 147.032C134.187 150.264 135.173 152.731 136.084 154.43C136.026 154.845 136.32 155.34 136.966 155.914C137.671 156.496 138.464 157.091 139.347 157.698C140.238 158.246 141.133 158.764 142.033 159.253C142.941 159.682 143.568 159.951 143.916 160.06ZM116.608 126.31C115.493 119.139 113.93 112.147 111.918 105.335C111.437 105.751 110.973 106.261 110.525 106.864C110.138 107.475 109.869 108.102 109.718 108.747C109.392 110.213 108.766 111.668 107.839 113.11C106.911 114.553 105.933 115.929 104.904 117.236C103.874 118.544 102.921 119.741 102.043 120.828C101.225 121.923 100.766 122.827 100.667 123.539C100.584 124.132 100.67 124.597 100.925 124.935C101.205 125.095 101.604 125.272 102.121 125.465C102.647 125.599 103.168 125.763 103.686 125.956C104.262 126.157 104.813 126.325 105.339 126.459C105.864 126.593 106.305 126.685 106.661 126.735C108.025 126.925 109.27 126.887 110.396 126.621C111.59 126.304 112.898 126.245 114.322 126.444C114.678 126.494 115.063 126.547 115.478 126.605C115.902 126.604 116.279 126.506 116.608 126.31Z" fill="white"/>
<path d="M230.571 58.7578L226.091 64.9822L138.445 91.6249L134.619 79.0382L228.405 50.5291L225.513 37.1553L237.524 39.7085L248.884 91.422C237.84 99.5861 226.683 104.99 215.413 107.633L193.992 90.6694L192.779 103.782L160.394 126.873L161.051 138.411L149.02 134.69L148.058 119.388L182.973 94.6895L183.984 85.3276L192.426 82.7613L210.699 95.9868C221.239 92.7828 229.584 88.7929 235.734 84.0171L230.571 58.7578Z" fill="white"/>
<path d="M181.459 195.329C181.682 195.445 181.748 195.656 181.659 195.963C181.625 196.298 181.496 196.478 181.271 196.503L169.845 196.057C169.454 195.995 169.203 195.934 169.092 195.876C168.369 195.5 168.077 194.57 168.214 193.087C168.351 191.604 168.957 189.765 170.031 187.569C166.846 188.664 163.767 189.285 160.794 189.431C157.876 189.606 155.029 188.969 152.251 187.521C149.917 186.304 148.098 184.508 146.793 182.132C145.544 179.785 144.931 177.098 144.954 174.072C145.061 171.02 145.926 167.938 147.548 164.826C149.604 160.882 152.329 158.027 155.721 156.263C159.114 154.499 162.645 153.69 166.313 153.836C169.982 153.982 173.261 154.808 176.15 156.314C179.094 157.849 181.385 159.962 183.021 162.652L192.752 143.984C193.795 141.984 194.325 140.424 194.344 139.303C194.419 138.212 193.956 137.405 192.956 136.884C192.234 136.507 190.753 136.23 188.514 136.052L188.348 135.965C188.125 135.849 188.017 135.651 188.021 135.371C188.111 135.064 188.268 134.899 188.492 134.875L201.769 135.225C201.91 135.228 202.063 135.272 202.23 135.359C202.341 135.417 202.436 135.573 202.516 135.826C202.68 136.053 202.719 136.25 202.632 136.417L176.262 187.002C175.219 189.002 174.688 190.562 174.669 191.683C174.706 192.833 175.252 193.683 176.307 194.233C177.919 195.073 179.566 195.437 181.249 195.325L181.459 195.329ZM157.065 186.215C159.065 187.258 161.172 187.756 163.387 187.709C165.63 187.607 168.077 187.116 170.726 186.236L180.284 167.902C179.906 165.373 179.172 163.189 178.082 161.349C176.993 159.509 175.309 157.996 173.031 156.808C169.531 154.983 166.101 154.785 162.742 156.214C159.468 157.616 156.643 160.594 154.268 165.15C152.675 168.206 151.743 171.147 151.471 173.972C151.199 176.798 151.535 179.27 152.48 181.388C153.481 183.534 155.009 185.143 157.065 186.215Z" fill="white"/>
<path d="M122.604 246.188C122.096 245.667 122.102 245.153 122.622 244.645C122.83 244.441 123.141 244.188 123.556 243.884C124.023 243.529 124.514 243.303 125.03 243.206C127.068 244.875 128.857 245.821 130.398 246.044C131.938 246.268 133.409 245.796 134.811 244.629C135.538 244.02 136.655 243.03 138.162 241.658C139.721 240.236 142.032 238.613 143.904 236.782C145.879 234.953 147.208 233.12 224.097 163.189C225.813 161.511 227.348 159.96 228.701 158.535C230.157 157.111 231.198 156.043 231.823 155.33C232.812 154.261 233.363 153.316 233.475 152.495C233.638 151.725 233.34 150.847 232.579 149.861L230.07 146.67C229.714 146.306 229.744 145.921 230.16 145.514C230.94 144.751 231.896 144.325 233.029 144.235C234.102 144.813 235.327 145.65 236.703 146.745C238.08 147.841 239.225 148.857 240.14 149.793C241.259 150.937 241.761 152.023 241.646 153.05C241.584 154.027 240.929 155.125 239.68 156.345C237.549 158.327 234.95 160.766 231.883 163.663C228.918 166.561 226.058 169.357 223.302 172.051C145.945 242.441 143.916 244.423 142.2 246.101C140.535 247.831 139.051 249.383 137.75 250.757C136.604 252.081 136.41 253.287 137.169 254.376C137.371 254.687 137.726 255.154 138.233 255.777C138.843 256.401 139.427 257.05 139.985 257.725C140.646 258.401 141.104 258.869 141.358 259.129C141.098 259.383 140.735 259.688 140.268 260.043C139.852 260.449 139.463 260.728 139.101 260.878C138.428 261.23 137.938 261.353 137.631 261.247C137.324 261.141 137.119 261.036 137.018 260.932L122.604 246.188ZM248.654 140.555C247.434 139.307 246.807 137.885 246.774 136.29C246.74 134.696 247.27 133.365 248.362 132.297C249.558 131.128 250.953 130.578 252.547 130.647C254.192 130.666 255.625 131.299 256.845 132.547C258.015 133.744 258.564 135.138 258.495 136.732C258.528 138.327 257.947 139.709 256.751 140.878C255.659 141.946 254.316 142.445 252.722 142.375C251.179 142.358 249.823 141.751 248.654 140.555Z" fill="white"/>
<path d="M232.826 275.555L230.582 267.974L236.587 266.197C239.082 265.459 240.708 264.442 241.467 263.146C242.226 261.851 242.236 259.956 241.498 257.462L226.957 208.333L214.847 211.918L212.749 204.829L224.858 201.245L222.556 193.467C221.06 188.413 221.197 184.411 222.965 181.46C224.733 178.51 228.078 176.306 233.001 174.849L244.717 171.381L246.931 178.864L235.708 182.186C233.279 182.905 231.662 183.954 230.857 185.335C230.099 186.63 230.088 188.525 230.827 191.019L233.129 198.797L251.244 193.435L253.342 200.524L235.227 205.886L249.768 255.014C251.264 260.068 251.128 264.07 249.36 267.021C247.592 269.971 244.279 272.165 239.422 273.603L232.826 275.555Z" fill="white"/>
<path d="M253.643 181.991C253.763 181.461 253.946 180.839 254.194 180.124C254.441 179.409 254.872 178.928 255.484 178.681C255.834 178.46 256.265 178.258 256.778 178.074C257.332 177.9 257.901 177.75 258.486 177.626C259.112 177.51 259.708 177.431 260.275 177.388C260.832 177.386 261.294 177.426 261.661 177.509C262.843 177.776 263.906 178.189 264.851 178.745C265.787 179.342 266.866 179.779 268.088 180.056L269.8 180.444C269.89 180.421 270.081 180.336 270.372 180.187C270.662 180.039 270.982 179.855 271.332 179.634C271.713 179.463 272.054 179.283 272.354 179.094C272.685 178.955 272.926 178.838 273.076 178.744C273.126 178.712 273.219 178.583 273.356 178.357C273.484 178.172 273.62 177.946 273.767 177.679C273.953 177.421 274.115 177.18 274.252 176.954C274.43 176.737 274.528 176.588 274.546 176.506C274.637 176.484 274.832 176.378 275.132 176.189C275.422 176.041 275.577 175.926 275.595 175.844C276.25 175.221 276.977 174.379 277.774 173.317C278.612 172.265 279.402 171.137 280.146 169.935C280.93 168.741 281.628 167.55 282.24 166.361C282.852 165.171 283.255 164.149 283.448 163.293C283.494 163.089 283.477 162.978 283.395 162.96C283.215 161.677 282.92 160.518 282.512 159.483C282.103 158.448 281.795 157.35 281.587 156.189C281.454 155.26 281.383 154.344 281.373 153.442C281.363 152.54 281.353 151.639 281.343 150.737C281.374 149.844 281.384 148.947 281.374 148.045C281.405 147.152 281.37 146.266 281.269 145.387C281.154 144.761 280.993 144.146 280.787 143.543C280.59 142.899 280.388 142.275 280.182 141.671C279.976 141.068 279.791 140.469 279.625 139.874C279.469 139.239 279.395 138.623 279.401 138.025L279.927 135.702C279.956 135.195 279.929 134.653 279.845 134.077C279.761 133.501 279.657 132.921 279.533 132.336C279.408 131.751 279.279 131.186 279.145 130.642C279.052 130.107 278.99 129.621 278.96 129.186C278.988 129.064 278.957 128.822 278.868 128.459C278.829 128.064 278.823 127.806 278.851 127.684C278.779 126.297 278.658 124.941 278.486 123.617C278.365 122.262 278.284 120.916 278.244 119.579C278.253 119.538 278.26 119.411 278.266 119.198C278.271 118.985 278.261 118.747 278.234 118.484C278.258 118.19 278.273 117.936 278.278 117.723C278.293 117.469 278.309 117.302 278.328 117.22C278.162 115.684 277.801 114.06 277.246 112.349C276.731 110.648 276.099 109.091 275.347 107.679C275.145 107.247 274.796 106.804 274.299 106.349C273.812 105.853 273.324 105.357 272.837 104.861C272.399 104.334 272.007 103.796 271.66 103.246C271.363 102.665 271.284 102.068 271.423 101.457C271.496 101.131 271.654 100.91 271.894 100.793C272.135 100.676 272.407 100.609 272.711 100.592C273.055 100.584 273.39 100.618 273.716 100.691C274.052 100.724 274.341 100.769 274.586 100.824C275.401 101.008 276.122 101.322 276.751 101.764C277.379 102.206 278.039 102.505 278.732 102.662L279.16 102.759C279.454 102.783 279.871 102.834 280.41 102.913C280.989 103.002 281.549 103.085 282.088 103.165C282.667 103.253 283.161 103.343 283.569 103.435C283.985 103.487 284.239 103.502 284.33 103.479C284.37 103.488 284.513 103.521 284.758 103.576C285.052 103.6 285.342 103.644 285.627 103.709C285.962 103.742 286.273 103.791 286.558 103.855C286.852 103.879 287.04 103.9 287.122 103.918C287.774 104.066 288.557 104.201 289.472 104.322C290.387 104.443 291.13 104.569 291.7 104.698C292.067 104.781 292.445 104.909 292.834 105.083C293.264 105.266 293.639 105.501 293.959 105.788C294.321 106.083 294.587 106.422 294.757 106.803C294.969 107.194 295.019 107.634 294.909 108.123C294.779 108.693 294.556 109.114 294.237 109.384C293.928 109.614 293.563 109.81 293.141 109.972C292.769 110.101 292.372 110.247 291.949 110.409C291.527 110.57 291.148 110.827 290.811 111.179C290.369 111.807 290.077 112.341 289.935 112.78C289.793 113.219 289.639 113.805 289.473 114.539C289.288 115.353 289.147 116.071 289.049 116.692C288.961 117.271 288.981 117.94 289.109 118.697C289.123 118.829 289.176 119.162 289.269 119.697C289.412 120.201 289.546 120.745 289.67 121.33C289.845 121.883 289.983 122.407 290.085 122.902C290.228 123.405 290.327 123.727 290.381 123.868C290.403 123.959 290.402 124.151 290.378 124.446C290.405 124.709 290.401 125.008 290.368 125.343C290.344 125.638 290.32 125.932 290.297 126.227C290.273 126.521 290.277 126.693 290.308 126.743C290.23 128.225 290.228 129.745 290.304 131.304C290.388 132.823 290.528 134.289 290.721 135.704C290.754 136.696 290.968 137.644 291.363 138.548C291.799 139.46 292.119 140.411 292.324 141.4C292.385 141.885 292.403 142.467 292.378 143.147C292.362 143.786 292.371 144.409 292.405 145.016C292.479 145.633 292.633 146.182 292.867 146.663C293.142 147.153 293.605 147.472 294.257 147.62C294.624 147.703 294.913 147.747 295.126 147.753C295.389 147.726 295.653 147.508 295.917 147.096C296.469 146.364 297.034 145.571 297.613 144.717C298.201 143.822 298.784 142.948 299.363 142.093C299.541 141.877 299.93 141.386 300.531 140.623C301.173 139.869 301.849 139.058 302.56 138.191C303.279 137.283 303.935 136.467 304.527 135.745C305.169 134.99 305.554 134.521 305.681 134.335C305.75 134.222 305.866 133.992 306.031 133.643C306.195 133.295 306.389 132.911 306.613 132.49C306.837 132.069 307.031 131.685 307.195 131.337C307.36 130.988 307.476 130.758 307.545 130.645C307.563 130.563 307.666 130.394 307.852 130.136C308.049 129.838 308.156 129.648 308.174 129.566C308.635 128.857 309.025 128.174 309.345 127.518C309.674 126.822 309.973 126.161 310.243 125.537C310.522 124.872 310.781 124.202 311.019 123.528C311.298 122.863 311.607 122.162 311.945 121.424C311.963 121.343 312.082 121.198 312.3 120.991C312.559 120.792 312.698 120.653 312.716 120.571L312.924 119.654L313.104 118.86C313.141 118.697 313.13 118.459 313.073 118.146C313.015 117.833 312.937 117.515 312.838 117.193C312.749 116.83 312.651 116.508 312.543 116.227C312.445 115.905 312.384 115.698 312.362 115.608C312.16 115.176 311.765 114.744 311.178 114.311C310.631 113.888 310.059 113.48 309.463 113.088C308.916 112.664 308.426 112.275 307.992 111.92C307.599 111.574 307.435 111.258 307.5 110.973C307.592 110.565 307.87 110.286 308.332 110.133C308.804 109.94 309.344 109.827 309.951 109.793C310.559 109.759 311.137 109.761 311.685 109.8C312.274 109.847 312.731 109.908 313.057 109.982C313.75 110.139 314.383 110.368 314.958 110.669C315.582 110.939 316.302 111.166 317.117 111.351C317.646 111.471 318.142 111.647 318.603 111.88C319.114 112.081 319.676 112.251 320.287 112.39C320.98 112.546 321.566 112.7 322.046 112.852C322.566 113.013 323.173 113.171 323.865 113.328C324.436 113.457 324.979 113.516 325.496 113.504C326.022 113.452 326.611 113.5 327.263 113.647C327.589 113.721 327.931 113.82 328.288 113.944C328.696 114.036 329.049 114.18 329.347 114.376C329.695 114.541 329.943 114.768 330.092 115.059C330.281 115.359 330.329 115.712 330.237 116.12C330.108 116.69 329.592 117.173 328.689 117.568C327.835 117.932 326.855 118.288 325.748 118.637C324.641 118.987 323.534 119.336 322.427 119.685C321.36 120.043 320.543 120.436 319.975 120.865C319.566 121.158 319.265 121.539 319.073 122.01C318.922 122.49 318.693 122.931 318.388 123.333C318.32 123.446 318.142 123.663 317.855 123.983C317.619 124.272 317.352 124.597 317.056 124.959C316.76 125.32 316.464 125.682 316.168 126.043C315.922 126.373 315.785 126.599 315.758 126.721C315.708 126.753 315.594 126.877 315.416 127.094C315.289 127.279 315.132 127.5 314.945 127.758C314.767 127.975 314.59 128.191 314.412 128.408C314.275 128.634 314.182 128.763 314.132 128.795C314.113 128.876 314.02 129.005 313.852 129.181C313.724 129.366 313.631 129.495 313.571 129.567C313.512 129.64 313.378 129.759 313.169 129.926C313.001 130.102 312.812 130.274 312.603 130.44C312.434 130.616 312.246 130.788 312.036 130.955C311.868 131.131 311.759 131.235 311.709 131.266C311.65 131.338 311.497 131.54 311.251 131.869C311.055 132.168 310.83 132.502 310.574 132.873C310.319 133.243 310.089 133.598 309.884 133.937C309.678 134.276 309.562 134.507 309.534 134.629C309.425 134.733 309.113 135.069 308.599 135.638C308.135 136.176 307.636 136.77 307.103 137.42C306.571 138.071 306.067 138.685 305.594 139.263C305.12 139.841 304.84 140.228 304.753 140.422C304.448 140.824 304.145 141.312 303.843 141.887C303.583 142.47 303.297 143.07 302.987 143.685C302.726 144.268 302.445 144.847 302.144 145.422C301.852 145.955 301.569 146.448 301.295 146.9C300.091 148.812 298.788 150.595 297.386 152.248C296.033 153.869 294.769 155.575 293.593 157.365C293.534 157.437 293.431 157.607 293.285 157.873C293.139 158.14 292.968 158.423 292.772 158.721C292.626 158.988 292.459 159.25 292.273 159.508C292.127 159.774 292.024 159.944 291.965 160.016C291.454 160.757 290.957 161.63 290.473 162.634C290.029 163.648 289.471 164.506 288.797 165.211C288.747 165.242 288.608 165.382 288.381 165.63C288.162 165.838 287.919 166.061 287.651 166.3C287.373 166.58 287.1 166.84 286.832 167.079C286.605 167.327 286.461 167.488 286.402 167.56C286.361 167.551 286.297 167.643 286.211 167.838C286.114 168.073 286.014 168.329 285.908 168.605C285.803 168.881 285.702 169.136 285.606 169.372C285.51 169.607 285.458 169.745 285.448 169.786C285.284 170.134 285.056 170.575 284.763 171.108C284.462 171.683 284.165 172.237 283.873 172.77C283.572 173.345 283.309 173.842 283.086 174.263C282.862 174.683 282.72 174.93 282.661 175.002C281.371 177.109 279.825 178.922 278.024 180.442C276.224 181.962 274.419 183.502 272.609 185.063C272.6 185.104 272.466 185.224 272.207 185.422C271.979 185.67 271.731 185.914 271.463 186.153C271.185 186.433 270.912 186.692 270.644 186.932C270.416 187.18 270.278 187.32 270.228 187.351C270.069 187.487 269.723 187.687 269.192 187.952C268.692 188.268 268.168 188.599 267.618 188.945C267.068 189.292 266.544 189.623 266.044 189.938C265.544 190.254 265.215 190.479 265.056 190.614C263.896 190.437 262.781 190.442 261.711 190.628C260.682 190.824 259.617 190.797 258.517 190.548C256.194 190.022 254.666 189.012 253.934 187.518C253.232 186.075 253.135 184.232 253.643 181.991Z" fill="white"/>
</svg>
