<?xml version="1.0" encoding="iso-8859-1"?>
<!-- Generator: Adobe Illustrator 22.1.0, SVG Export Plug-In . SVG Version: 6.00 Build 0)  -->
<svg version="1.1" xmlns="http://www.w3.org/2000/svg" xmlns:xlink="http://www.w3.org/1999/xlink" x="0px" y="0px"
	 viewBox="0 0 50 50" style="enable-background:new 0 0 50 50;" xml:space="preserve">
<g id="Layer_1">
	<path d="M16.996,0.992L1,3.125v46.177l16.008-4.269l15.935,3.984L49,46.875V0.858L32.996,2.992L16.996,0.992z M18,3.133l14,1.75
		v41.836l-14-3.5V3.133z M3,4.875l13-1.733v40.09L3,46.698V4.875z M47,45.125l-13,1.733V4.875l13-1.733V45.125z"/>
	<rect x="36" y="14" width="2" height="2"/>
	<rect x="40" y="17" width="2" height="2"/>
	<rect x="40" y="22" width="2" height="2"/>
	<rect x="40" y="27" width="2" height="2"/>
	<rect x="36" y="30" width="2" height="2"/>
	<rect x="27" y="31" width="2" height="2"/>
	<rect x="22" y="32" width="2" height="2"/>
	<rect x="12" y="36" width="2" height="2"/>
	<polygon points="9.293,28.293 7.5,30.086 5.707,28.293 4.293,29.707 6.086,31.5 4.293,33.293 5.707,34.707 7.5,32.914 
		9.293,34.707 10.707,33.293 8.914,31.5 10.707,29.707 	"/>
	<polygon points="27.707,13.293 25.914,11.5 27.707,9.707 26.293,8.293 24.5,10.086 22.707,8.293 21.293,9.707 23.086,11.5 
		21.293,13.293 22.707,14.707 24.5,12.914 26.293,14.707 	"/>
</g>
<g>
</g>
</svg>
