<svg version="1.1" id="Capa_1" xmlns="http://www.w3.org/2000/svg" xmlns:xlink="http://www.w3.org/1999/xlink" x="0px" y="0px" width="595.28px" height="841.89px" viewBox="0 0 595.28 841.89" enable-background="new 0 0 595.28 841.89" xml:space="preserve">
<g>
	<g>
		<g>
			<path fill="#ffffff" d="M570.473,408.547c0-109.36,24.415-269.344,24.657-270.943c0.653-4.263-0.957-8.563-4.251-11.347
				c-3.294-2.797-7.836-3.658-11.905-2.314c-0.738,0.242-75.256,24.174-244.129,24.174c-146.19,0-318.962-24.427-320.682-24.682
				c-4.384-0.63-8.538,1.053-11.287,4.348c-2.761,3.318-3.597,7.812-2.217,11.893c0.242,0.715,24.149,72.738,24.149,169.66
				c0,5.741,3.948,10.73,9.531,12.062c24.234,5.764,64.877,23.143,64.877,74.748c0,46.99-20.055,70.642-63.097,74.458
				c-6.406,0.57-11.311,5.922-11.311,12.353c0,132.82-24.089,218.975-24.33,219.823c-1.174,4.118-0.134,8.563,2.75,11.736
				c2.882,3.161,7.206,4.651,11.396,3.863c1.357-0.242,136.162-24.597,208.608-24.597c109.712,0,355.936,24.489,358.407,24.742
				c0.412,0.036,0.823,0.06,1.236,0.06c3.416,0,6.697-1.404,9.047-3.924c2.64-2.822,3.827-6.71,3.186-10.513
				C594.864,702.671,570.473,554.652,570.473,408.547z M223.232,668.978c-58.919,0-154,14.933-194.257,21.727
				c7.049-31.633,19.68-101.223,20.588-196.849c48.782-8.369,74.458-41.94,74.458-97.71c0-46.372-27.637-81.772-74.482-96.293
				c-1.017-67.807-12.753-122.173-19.91-149.326c49.303,6.346,185.876,22.392,305.216,22.392
				c126.642,0,200.919-12.983,233.06-20.407c-6.468,45.949-22.235,167.129-22.235,256.035c0,119.97,16.216,241.187,22.514,283.744
				C511.456,686.853,317.781,668.978,223.232,668.978z" id="id_101"></path>
			<path fill="#ffffff" d="M446.458,544.964c-27.358,0-49.606,22.247-49.606,49.606s22.247,49.606,49.606,49.606
				s49.606-22.247,49.606-49.606S473.816,544.964,446.458,544.964z M446.458,619.373c-13.673,0-24.803-11.13-24.803-24.803
				s11.13-24.802,24.803-24.802s24.803,11.13,24.803,24.802S460.131,619.373,446.458,619.373z" id="id_102"></path>
			<path fill="#ffffff" d="M168.454,532.562c0-6.855-5.547-12.402-12.402-12.402c-6.855,0-12.402,5.547-12.402,12.402
				c0,9.216,1.804,19.074,5.207,28.485c1.829,5.05,6.589,8.187,11.662,8.187c1.404,0,2.822-0.23,4.215-0.738
				c6.443-2.337,9.773-9.446,7.448-15.877C169.738,545.872,168.454,538.932,168.454,532.562z" id="id_103"></path>
			<path fill="#ffffff" d="M241.192,276.225c2.665,0,5.353-0.86,7.63-2.628c9.931-7.763,22.611-13.891,37.665-18.215
				c6.589-1.878,10.392-8.756,8.502-15.333c-1.878-6.576-8.769-10.428-15.333-8.502c-18.142,5.196-33.656,12.765-46.118,22.502
				c-5.389,4.215-6.346,12.014-2.131,17.415C233.853,274.591,237.499,276.225,241.192,276.225z" id="id_104"></path>
			<path fill="#ffffff" d="M230.462,594.569c-13.153,0-24.936-3.633-35.024-10.803c-5.596-3.984-13.31-2.628-17.294,2.931
				c-3.96,5.583-2.652,13.322,2.931,17.294c14.363,10.209,30.98,15.38,51.375,15.38c6.855,0,11.409-5.547,11.409-12.402
				C243.856,600.116,237.316,594.569,230.462,594.569z" id="id_105"></path>
			<path fill="#ffffff" d="M205.659,359.075h0.012c6.842,0,12.389-5.692,12.389-12.534c0-15.586,2.337-29.405,6.951-41.079
				c2.507-6.37-0.617-13.576-6.987-16.083c-6.358-2.519-13.576,0.593-16.096,6.976c-5.643,14.327-8.563,30.87-8.599,50.478h-0.06
				C193.281,353.673,198.817,359.075,205.659,359.075z" id="id_106"></path>
			<path fill="#ffffff" d="M254.368,411.999c-13.527-6.528-22.502-14.678-28.243-25.627c-3.173-6.055-10.658-8.454-16.737-5.232
				c-6.068,3.173-8.405,10.67-5.232,16.737c8.223,15.696,21.122,27.624,39.433,36.453c1.732,0.836,3.573,1.236,5.377,1.236
				c4.614,0,9.046-2.58,11.179-7.012C263.124,422.391,260.533,414.979,254.368,411.999z" id="id_107"></path>
			<path fill="#ffffff" d="M330.134,248.152c13.685-0.945,29.636-1.925,42.908,1.272c0.968,0.242,1.95,0.351,2.918,0.351
				c5.596,0,10.669-3.815,12.038-9.495c1.61-6.649-2.482-13.359-9.144-14.957c-15.89-3.852-34.419-3.04-50.49-1.901
				c-6.831,0.485-11.966,6.406-11.481,13.249C317.357,243.49,323.158,248.758,330.134,248.152z" id="id_108"></path>
			<path fill="#ffffff" d="M344.606,466.813c4.517-5.147,3.997-12.983-1.151-17.5c-13.504-11.832-31.064-17.9-46.469-22.66
				c-6.528-2.023-13.48,1.635-15.501,8.187c-2.023,6.54,1.635,13.48,8.187,15.501c12.959,4.009,27.601,8.999,37.435,17.621
				c2.35,2.059,5.268,3.076,8.174,3.076C338.72,471.039,342.16,469.61,344.606,466.813z" id="id_109"></path>
			<path fill="#ffffff" d="M353.241,487.51c-6.831,0.521-11.941,6.479-11.421,13.31c0.17,2.229,0.255,4.53,0.255,6.94
				c0,12.838-1.732,24.355-5.16,34.237c-2.253,6.479,1.174,13.54,7.642,15.78c1.357,0.472,2.725,0.691,4.069,0.691
				c5.135,0,9.943-3.209,11.711-8.333c4.335-12.51,6.54-26.765,6.54-42.376c0-3.064-0.109-5.995-0.327-8.829
				C366.03,492.112,360.047,487.014,353.241,487.51z" id="id_110"></path>
			<path fill="#ffffff" d="M314.195,573.69c-9.834,7.485-22.575,13.019-37.846,16.458c-6.685,1.502-10.875,8.138-9.374,14.824
				c1.296,5.764,6.419,9.677,12.087,9.677c0.908,0,1.817-0.096,2.737-0.302c18.772-4.226,34.722-11.264,47.413-20.916
				c5.45-4.142,6.504-11.929,2.361-17.379C327.445,570.602,319.646,569.549,314.195,573.69z" id="id_111"></path>
			<path fill="#ffffff" d="M417.053,288.239c1.659,5.305,6.551,8.695,11.832,8.695c1.223,0,2.471-0.181,3.706-0.57
				c6.528-2.046,10.173-8.999,8.127-15.539c-0.4-1.272-4.19-12.825-14.376-25.469c-4.288-5.328-12.087-6.189-17.44-1.865
				c-5.328,4.299-6.164,12.098-1.865,17.44C414.28,279.919,417.041,288.227,417.053,288.239z" id="id_112"></path>
			<path fill="#ffffff" d="M463.013,421.47c2.204,2.75,5.474,4.433,8.999,4.626c0.23,0.012,0.46,0.024,0.691,0.024
				c3.282,0,6.431-1.296,8.769-3.633l10.96-10.949c2.495-2.482,3.803-5.922,3.609-9.446s-1.878-6.806-4.626-9.01l-42.676-34.141
				l42.676-34.141c2.75-2.204,4.433-5.486,4.626-9.01c0.194-3.524-1.114-6.964-3.609-9.446l-10.96-10.949
				c-2.495-2.495-5.995-3.694-9.458-3.609c-3.524,0.194-6.794,1.878-8.999,4.626l-34.134,42.671l-34.134-42.671
				c-2.204-2.75-5.474-4.433-8.999-4.626c-3.391-0.036-6.951,1.114-9.458,3.609l-10.96,10.949c-2.495,2.482-3.803,5.922-3.609,9.446
				c0.194,3.524,1.878,6.806,4.626,9.01l42.676,34.141l-42.676,34.141c-2.75,2.204-4.433,5.486-4.626,9.01
				c-0.194,3.524,1.114,6.964,3.609,9.446l10.96,10.949c2.337,2.337,5.486,3.633,8.769,3.633c0.23,0,0.46-0.012,0.691-0.024
				c3.524-0.194,6.794-1.878,8.999-4.626l34.134-42.671L463.013,421.47z" id="id_113"></path>
		</g>
	</g>
</g>
</svg>