<svg width="22" height="24" viewBox="0 0 22 24" fill="none" xmlns="http://www.w3.org/2000/svg">
<path id="Notification Icon" fill-rule="evenodd" clip-rule="evenodd" d="M14.2523 2.56921C13.8095 1.0836 12.4319 0 10.8023 0L10.5911 0.00479996L10.3727 0.0252C9.64068 0.113682 8.95339 0.424605 8.40362 0.916008C7.85385 1.40741 7.46806 2.05564 7.29832 2.77321L7.28631 2.82481L6.98871 3.00001C5.64971 3.81794 4.53159 4.95161 3.73224 6.30179C2.93289 7.65197 2.47666 9.1775 2.40349 10.7449L2.40229 14.3089L2.37709 14.4805C2.28114 14.997 2.07329 15.4863 1.76814 15.914C1.46298 16.3416 1.06792 16.6973 0.610683 16.9561C-0.462122 17.5633 -0.0313196 19.2001 1.20229 19.2001H20.4024L20.5416 19.1929C21.666 19.0753 22.026 17.5405 20.994 16.9561L20.7996 16.8373L20.5992 16.6969C19.8812 16.1553 19.3919 15.3647 19.2276 14.4805L19.2024 14.3173V10.8L19.1796 10.4532L19.146 10.1088C18.9735 8.59981 18.446 7.15311 17.6066 5.88723C16.7673 4.62135 15.64 3.5723 14.3171 2.82601L14.3075 2.77441L14.2523 2.56921ZM14.3783 22.4016C15.0707 21.6288 14.5223 20.4 13.4843 20.4L8.1191 20.4012L7.9871 20.4084C7.0367 20.5068 6.5639 21.6624 7.2263 22.4016C7.6761 22.905 8.2272 23.3076 8.84347 23.583C9.45975 23.8585 10.1273 24.0006 10.8023 24C11.4774 24.0006 12.1449 23.8585 12.7612 23.583C13.3774 23.3076 13.9285 22.905 14.3783 22.4016Z" fill="white"/>
</svg>
