<svg width="29" height="16" viewBox="0 0 29 16" fill="none" xmlns="http://www.w3.org/2000/svg">
<path id="Group Icon" fill-rule="evenodd" clip-rule="evenodd" d="M14.5001 8.79716C17.017 8.79716 19.0573 6.82785 19.0573 4.39858C19.0573 1.9693 17.017 0 14.5001 0C11.9832 0 9.9429 1.9693 9.9429 4.39858C9.9429 6.82785 11.9832 8.79716 14.5001 8.79716ZM22.0954 15.4288C22.0954 15.7382 21.8178 16 21.4898 16H7.51039C7.18235 16 6.90478 15.7382 6.90478 15.4288C6.90478 11.717 8.09076 10.2174 11.6739 10.2174H17.3263C20.9094 10.2174 22.0954 11.717 22.0954 15.4288ZM9.34156 8.97143C8.83256 8.59108 8.10615 8.41778 7.10557 8.41778H3.25169C0.808623 8.41778 0 9.45096 0 12.0084C0 12.2215 0.189252 12.4019 0.412919 12.4019H5.73703C6.15751 10.3399 7.24074 9.27053 9.34156 8.97143ZM8.2858 4.40862C8.2858 6.08238 6.89467 7.43922 5.17863 7.43922C3.46258 7.43922 2.07145 6.08238 2.07145 4.40862C2.07145 2.73486 3.46258 1.37802 5.17863 1.37802C6.89467 1.37802 8.2858 2.73486 8.2858 4.40862ZM28.5871 12.4019H23.2632C22.8428 10.3396 21.7596 9.27021 19.6588 8.97104C20.1678 8.5909 20.8941 8.41769 21.8944 8.41769H25.7483C28.1914 8.41769 29 9.45086 29 12.0083C29 12.2214 28.8107 12.4019 28.5871 12.4019ZM23.8214 7.43913C25.5374 7.43913 26.9286 6.08229 26.9286 4.40853C26.9286 2.73477 25.5374 1.37793 23.8214 1.37793C22.1053 1.37793 20.7142 2.73477 20.7142 4.40853C20.7142 6.08229 22.1053 7.43913 23.8214 7.43913Z" fill="white"/>
</svg>
