<!DOCTYPE svg PUBLIC "-//W3C//DTD SVG 1.1//EN" "http://www.w3.org/Graphics/SVG/1.1/DTD/svg11.dtd">
<!-- Uploaded to: SVG Repo, www.svgrepo.com, Transformed by: SVG Repo Mixer Tools -->
<svg version="1.1" id="Icons" xmlns="http://www.w3.org/2000/svg" xmlns:xlink="http://www.w3.org/1999/xlink" viewBox="0 0 32 32" xml:space="preserve" width="256px" height="256px" fill="#000000">
<g id="SVGRepo_bgCarrier" stroke-width="0"/>
<g id="SVGRepo_tracerCarrier" stroke-linecap="round" stroke-linejoin="round"/>
<g id="SVGRepo_iconCarrier"> <style type="text/css"> .st0{fill:none;stroke:#ffffff;stroke-width:2;stroke-linecap:round;stroke-linejoin:round;stroke-miterlimit:10;} </style> <g> <path d="M26,19c-1.2,0-2.3,0.3-3.3,1h-4.4c-1-0.7-2.1-1-3.3-1c-3.3,0-6,2.7-6,6s2.7,6,6,6c1.2,0,2.3-0.3,3.3-1h4.4 c1,0.7,2.1,1,3.3,1c3.3,0,6-2.7,6-6S29.3,19,26,19z M17,26h-1v1c0,0.6-0.4,1-1,1s-1-0.4-1-1v-1h-1c-0.6,0-1-0.4-1-1s0.4-1,1-1h1v-1 c0-0.6,0.4-1,1-1s1,0.4,1,1v1h1c0.6,0,1,0.4,1,1S17.6,26,17,26z M25.9,26.4c-0.1,0.1-0.1,0.2-0.2,0.3c-0.1,0.1-0.2,0.2-0.3,0.2 S25.1,27,25,27c-0.1,0-0.3,0-0.4-0.1c-0.1,0-0.2-0.1-0.3-0.2c-0.1-0.1-0.2-0.2-0.2-0.3C24,26.3,24,26.1,24,26s0-0.3,0.1-0.4 c0.1-0.1,0.1-0.2,0.2-0.3c0.1-0.1,0.2-0.2,0.3-0.2c0.4-0.2,0.8-0.1,1.1,0.2c0.1,0.1,0.2,0.2,0.2,0.3c0,0.1,0.1,0.3,0.1,0.4 S26,26.3,25.9,26.4z M27.9,24.4c-0.1,0.1-0.1,0.2-0.2,0.3c-0.1,0.1-0.2,0.2-0.3,0.2S27.1,25,27,25c-0.1,0-0.3,0-0.4-0.1 c-0.1,0-0.2-0.1-0.3-0.2C26.1,24.5,26,24.3,26,24c0-0.3,0.1-0.5,0.3-0.7c0,0,0.1-0.1,0.1-0.1c0.1,0,0.1-0.1,0.2-0.1 c0.1,0,0.1,0,0.2-0.1c0.1,0,0.3,0,0.4,0c0.1,0,0.1,0,0.2,0.1c0.1,0,0.1,0,0.2,0.1c0,0,0.1,0.1,0.1,0.1c0.2,0.2,0.3,0.5,0.3,0.7 C28,24.1,28,24.3,27.9,24.4z"/> <path d="M13.5,17.2c0.1-0.5,0.1-1,0-1.5c-0.2-1.2-1.1-2.1-2.2-2.5c-0.6-0.2-1.3-0.4-2.1-0.5c-2.4-0.5-5.1-1.1-6.1-3.2 C2.7,8.7,2.5,8,2.3,7.3C0.9,9.5,0,12.2,0,15c0,5.2,2.9,9.8,7.1,12.2c0-0.2,0.1-0.3,0.1-0.5C7.1,26.1,7,25.6,7,25 C7,21.1,9.8,17.9,13.5,17.2z"/> <path d="M9.6,10.7c0.8,0.2,1.6,0.4,2.3,0.6c1.8,0.6,3.2,2.1,3.5,4c0.1,0.6,0.1,1.2,0,1.8c1.2,0.1,2.3,0.4,3.3,1h2.9 c1-0.7,1.8-1.6,2.4-2.6c1.4-2.1,1.7-6,1.8-7.7C23.5,3.7,19.1,1,14,1C10.1,1,6.6,2.6,4,5.2c0,0.5,0.2,1.9,0.9,3.3 C5.5,9.8,7.7,10.2,9.6,10.7z"/> <path d="M25.5,17c0.2,0,0.3,0,0.5,0c0.6,0,1.2,0.1,1.8,0.2c0.1-0.7,0.2-1.5,0.2-2.2c0-1.2-0.2-2.3-0.4-3.4 c-0.3,1.7-0.8,3.6-1.7,4.9C25.7,16.7,25.6,16.9,25.5,17z"/> </g> </g>
</svg>