<!DOCTYPE svg PUBLIC "-//W3C//DTD SVG 1.1//EN" "http://www.w3.org/Graphics/SVG/1.1/DTD/svg11.dtd">
<!-- Uploaded to: SVG Repo, www.svgrepo.com, Transformed by: SVG Repo Mixer Tools -->
<svg width="800px" height="800px" viewBox="-1.4 -1.4 16.80 16.80" role="img" focusable="false" aria-hidden="true" xmlns="http://www.w3.org/2000/svg" fill="#4d4d4d" stroke="#4d4d4d" transform="rotate(0)matrix(1, 0, 0, 1, 0, 0)" stroke-width="0.00014">
<g id="SVGRepo_bgCarrier" stroke-width="0"/>
<g id="SVGRepo_tracerCarrier" stroke-linecap="round" stroke-linejoin="round" stroke="#804000" stroke-width="0.252"> <g transform="translate(-.19673613 -.19890905) scale(.29973)"> <g fill="#4d4d4d"> <path d="M29.17489859 31.99050141l2.828-2.828 12.019 12.019-2.828 2.828z"/> <circle cx="20" cy="20" r="16"/> </g> <path d="M32.4490993 35.34029788l2.828-2.828 8.6961 8.6961-2.828 2.828z"/> <circle cx="20" cy="20" r="13" fill="#64b5f6"/> <path fill="#bbdefb" d="M26.9 14.2c-1.7-2-4.2-3.2-6.9-3.2s-5.2 1.2-6.9 3.2c-.4.4-.3 1.1.1 1.4.4.4 1.1.3 1.4-.1C16 13.9 17.9 13 20 13c2.1 0 4 .9 5.4 2.5.2.2.5.4.8.4.2 0 .5-.1.6-.2.4-.4.4-1.1.1-1.5z"/> </g> </g>
<g id="SVGRepo_iconCarrier"> <g transform="translate(-.19673613 -.19890905) scale(.29973)"> <g fill="#4d4d4d"> <path d="M29.17489859 31.99050141l2.828-2.828 12.019 12.019-2.828 2.828z"/> <circle cx="20" cy="20" r="16"/> </g> <path d="M32.4490993 35.34029788l2.828-2.828 8.6961 8.6961-2.828 2.828z"/> <circle cx="20" cy="20" r="13" fill="#64b5f6"/> <path fill="#bbdefb" d="M26.9 14.2c-1.7-2-4.2-3.2-6.9-3.2s-5.2 1.2-6.9 3.2c-.4.4-.3 1.1.1 1.4.4.4 1.1.3 1.4-.1C16 13.9 17.9 13 20 13c2.1 0 4 .9 5.4 2.5.2.2.5.4.8.4.2 0 .5-.1.6-.2.4-.4.4-1.1.1-1.5z"/> </g> </g>
</svg>