<svg width="18" height="17" viewBox="0 0 18 17" fill="none" xmlns="http://www.w3.org/2000/svg">
<path id="Vector" d="M9 0C4.30545 0 0.5 3.80545 0.5 8.5C0.5 13.1945 4.30545 17 9 17C13.6945 17 17.5 13.1945 17.5 8.5C17.5 3.80545 13.6945 0 9 0ZM11.1981 11.9L8.39905 9.10095C8.23925 8.94115 8.15 8.72525 8.15 8.5V4.25C8.15 3.7808 8.5308 3.4 9 3.4C9.4692 3.4 9.85 3.7808 9.85 4.25V8.1481L12.4 10.6981C12.7315 11.0296 12.7315 11.5685 12.4 11.9C12.0685 12.2315 11.5296 12.2315 11.1981 11.9Z" fill="white"/>
</svg>
