<?xml version="1.0" ?>
<!-- Uploaded to: SVG Repo, www.svgrepo.com, Generator: SVG Repo Mixer Tools -->
<svg width="800px" height="800px" viewBox="0 0 32 32" enable-background="new 0 0 32 32" version="1.1" xml:space="preserve" xmlns="http://www.w3.org/2000/svg" xmlns:xlink="http://www.w3.org/1999/xlink">
<g id="_x36_0"/>
<g id="_x35_9"/>
<g id="_x35_8"/>
<g id="_x35_7"/>
<g id="_x35_6"/>
<g id="_x35_5"/>
<g id="_x35_4"/>
<g id="_x35_3"/>
<g id="_x35_2"/>
<g id="_x35_1"/>
<g id="_x35_0"/>
<g id="_x34_9"/>
<g id="_x34_8"/>
<g id="_x34_7"/>
<g id="_x34_6"/>
<g id="_x34_5"/>
<g id="_x34_4"/>
<g id="_x34_3"/>
<g id="_x34_2"/>
<g id="_x34_1"/>
<g id="_x34_0"/>
<g id="_x33_9"/>
<g id="_x33_8"/>
<g id="_x33_7"/>
<g id="_x33_6"/>
<g id="_x33_5"/>
<g id="_x33_4"/>
<g id="_x33_3"/>
<g id="_x33_2"/>
<g id="_x33_1"/>
<g id="_x33_0"/>
<g id="_x32_9"/>
<g id="_x32_8"/>
<g id="_x32_7"/>
<g id="_x32_6"/>
<g id="_x32_5"/>
<g id="_x32_4_1_"/>
<g id="_x32_3"/>
<g id="_x32_2"/>
<g id="_x32_1"/>
<g id="_x32_0"/>
<g id="_x31_9"/>
<g id="_x31_8"/>
<g id="_x31_7"/>
<g id="_x31_6"/>
<g id="_x31_5"/>
<g id="_x31_4"/>
<g id="_x31_3"/>
<g id="_x31_2"/>
<g id="_x31_1"/>
<g id="_x31_0"/>
<g id="_x39_"/>
<g id="_x38_"/>
<g id="_x37_"/>
<g id="_x36_"/>
<g id="_x35_"/>
<g id="_x34_"/>
<g id="_x33_"/>
<g id="_x32_"/>
<g id="_x31_">
<g>
<rect fill="#406AB5" height="5" width="10" x="7" y="7"/>
<rect fill="#FCDF65" height="5" width="10" x="7" y="12"/>
<rect fill="#406AB5" height="5" width="10" x="17" y="9"/>
<rect fill="#FCDF65" height="5" width="10" x="17" y="14"/>
</g>
<path d="M27,8h-9V7c0-0.5522461-0.4477539-1-1-1H8V4c0-0.5522461-0.4477539-1-1-1S6,3.4477539,6,4v24   c0,0.5522461,0.4477539,1,1,1s1-0.4477539,1-1V18h8v1c0,0.5522461,0.4477539,1,1,1h6c0.5522461,0,1-0.4477539,1-1s-0.4477539-1-1-1   h-5v-3h8v4c0,0.5522461,0.4477539,1,1,1s1-0.4477539,1-1V9C28,8.4477539,27.5522461,8,27,8z M16,8v3H8V8H16z M8,16v-3h8v3H8z    M18,10h8v3h-8V10z" fill="#4D4D4D"/>
</g>
<g id="Guides"/>
</svg>