<svg width="17" height="17" viewBox="0 0 17 17" fill="none" xmlns="http://www.w3.org/2000/svg">
<path id="Union" fill-rule="evenodd" clip-rule="evenodd" d="M16.8962 0.111538C16.9761 0.18896 17.0132 0.300444 16.9958 0.410312L16.3484 5.06265C16.3162 5.20834 16.2391 5.34023 16.1279 5.43967L8.47332 11.842C8.43425 11.8732 8.41084 11.92 8.40929 11.97C8.4063 12.0179 8.42451 12.0648 8.45909 12.0981L9.96724 13.5848C10.1688 13.784 10.2823 14.0555 10.2823 14.3389C10.2823 14.6222 10.1688 14.8938 9.96724 15.0929C9.55062 15.509 8.8757 15.509 8.45909 15.0929L1.90719 8.54123C1.5645 8.11522 1.59926 7.49911 1.9877 7.11434C2.37614 6.72958 2.99257 6.70066 3.41534 7.04736L4.93771 8.54123C4.96895 8.5803 5.01576 8.6037 5.06576 8.60526C5.11656 8.60709 5.1648 8.58297 5.19381 8.54123L11.5679 0.92961C11.6568 0.828212 11.7728 0.754198 11.9022 0.7162C11.9378 0.673518 11.9591 0.666404 16.5903 0.00483302C16.7038 -0.0146716 16.8194 0.0256472 16.8962 0.111538ZM14.1502 3.56167C14.3314 3.35914 14.3314 3.05283 14.1502 2.8503C13.9477 2.66915 13.6414 2.66915 13.4388 2.8503L6.55968 9.70787C6.49021 9.7748 6.45157 9.86751 6.45297 9.96396C6.45695 10.0405 6.48708 10.1133 6.53834 10.1703L6.78732 10.4192C6.85411 10.4866 6.94503 10.5245 7.03987 10.5245C7.13471 10.5245 7.22562 10.4866 7.29241 10.4192L14.1502 3.56167ZM0.416728 16.5833C-0.108803 16.0578 -0.141306 15.2163 0.342122 14.6518L3.05963 11.9273C3.20035 11.7909 3.424 11.7909 3.56472 11.9273L5.07286 13.4425C5.20476 13.5823 5.20476 13.8007 5.07286 13.9405L2.34824 16.6579C1.78374 17.1413 0.942259 17.1088 0.416728 16.5833Z" fill="white"/>
</svg>
